<mxfile host="65bd71144e">
    <diagram id="wKqAnk7TgBxgW07KdLlr" name="Page-1">
        <mxGraphModel dx="208" dy="1864" grid="1" gridSize="5" guides="1" tooltips="1" connect="1" arrows="1" fold="1" page="1" pageScale="1" pageWidth="850" pageHeight="1100" math="0" shadow="0">
            <root>
                <mxCell id="0"/>
                <mxCell id="1" parent="0"/>
                <mxCell id="R90EFHxZelVthEmokD4i-160" value="" style="endArrow=none;dashed=1;html=1;rounded=0;fontSize=20;strokeColor=#00A100;strokeWidth=4;" parent="1" edge="1">
                    <mxGeometry width="50" height="50" relative="1" as="geometry">
                        <mxPoint x="1555" y="295" as="sourcePoint"/>
                        <mxPoint x="1550" y="1105" as="targetPoint"/>
                    </mxGeometry>
                </mxCell>
                <mxCell id="5" style="edgeStyle=none;html=1;endArrow=none;endFill=0;exitX=1;exitY=0.5;exitDx=0;exitDy=0;startArrow=none;entryX=0;entryY=0.5;entryDx=0;entryDy=0;" parent="1" source="61" target="18" edge="1">
                    <mxGeometry relative="1" as="geometry">
                        <mxPoint x="795" y="60" as="sourcePoint"/>
                        <mxPoint x="895" y="100" as="targetPoint"/>
                    </mxGeometry>
                </mxCell>
                <mxCell id="2" value="" style="ellipse;whiteSpace=wrap;html=1;aspect=fixed;fillColor=#f5f5f5;strokeColor=#000000;gradientColor=#b3b3b3;" parent="1" vertex="1">
                    <mxGeometry x="40" y="70" width="20" height="20" as="geometry"/>
                </mxCell>
                <mxCell id="6" value="" style="endArrow=none;html=1;endFill=0;startArrow=none;" parent="1" source="39" edge="1">
                    <mxGeometry relative="1" as="geometry">
                        <mxPoint x="60" y="60" as="sourcePoint"/>
                        <mxPoint x="160" y="60" as="targetPoint"/>
                    </mxGeometry>
                </mxCell>
                <mxCell id="10" value="" style="endArrow=none;html=1;exitX=1;exitY=0.5;exitDx=0;exitDy=0;entryX=0;entryY=0.5;entryDx=0;entryDy=0;startArrow=none;" parent="1" source="55" target="44" edge="1">
                    <mxGeometry width="50" height="50" relative="1" as="geometry">
                        <mxPoint x="160" y="60" as="sourcePoint"/>
                        <mxPoint x="440" y="60" as="targetPoint"/>
                    </mxGeometry>
                </mxCell>
                <mxCell id="17" style="edgeStyle=none;html=1;endArrow=none;endFill=0;exitX=1;exitY=0.5;exitDx=0;exitDy=0;entryX=0;entryY=0.5;entryDx=0;entryDy=0;startArrow=none;" parent="1" source="89" target="46" edge="1">
                    <mxGeometry relative="1" as="geometry">
                        <mxPoint x="515" y="60" as="sourcePoint"/>
                        <mxPoint x="795" y="60" as="targetPoint"/>
                    </mxGeometry>
                </mxCell>
                <mxCell id="24" value="" style="group;" parent="1" vertex="1" connectable="0">
                    <mxGeometry x="915" y="65" width="41" height="41" as="geometry"/>
                </mxCell>
                <mxCell id="18" value="🦜" style="text;html=1;strokeColor=none;fillColor=none;align=center;verticalAlign=middle;whiteSpace=wrap;rounded=0;fontSize=36;" parent="24" vertex="1">
                    <mxGeometry x="0.6721311475409836" width="40.32786885245901" height="30" as="geometry"/>
                </mxCell>
                <mxCell id="20" value="&lt;font style=&quot;font-size: 10px;&quot;&gt;Snuggly&lt;/font&gt;" style="text;html=1;strokeColor=none;fillColor=none;align=center;verticalAlign=middle;whiteSpace=wrap;rounded=0;fontSize=10;" parent="24" vertex="1">
                    <mxGeometry y="30" width="41" height="11" as="geometry"/>
                </mxCell>
                <mxCell id="R90EFHxZelVthEmokD4i-132" value="" style="edgeStyle=orthogonalEdgeStyle;rounded=0;orthogonalLoop=1;jettySize=auto;html=1;dashed=1;dashPattern=1 1;fontSize=20;endArrow=none;endFill=0;" parent="1" source="37" target="38" edge="1">
                    <mxGeometry relative="1" as="geometry"/>
                </mxCell>
                <mxCell id="37" value="Dungeon Cell Key" style="text;html=1;strokeColor=none;fillColor=none;align=center;verticalAlign=middle;whiteSpace=wrap;rounded=0;fontSize=9;" parent="1" vertex="1">
                    <mxGeometry x="162" y="95" width="40" height="10" as="geometry"/>
                </mxCell>
                <mxCell id="40" value="" style="endArrow=none;html=1;endFill=0;exitX=1;exitY=0.5;exitDx=0;exitDy=0;" parent="1" source="2" target="39" edge="1">
                    <mxGeometry relative="1" as="geometry">
                        <mxPoint x="60" y="60" as="sourcePoint"/>
                        <mxPoint x="160" y="60" as="targetPoint"/>
                    </mxGeometry>
                </mxCell>
                <mxCell id="41" value="&lt;font style=&quot;font-size: 18px;&quot;&gt;🗝️&lt;/font&gt;" style="edgeLabel;html=1;align=center;verticalAlign=middle;resizable=0;points=[];fontSize=10;labelBackgroundColor=none;" parent="40" vertex="1" connectable="0">
                    <mxGeometry x="-0.3467" y="-1" relative="1" as="geometry">
                        <mxPoint x="18" y="-1" as="offset"/>
                    </mxGeometry>
                </mxCell>
                <mxCell id="38" value="Dungeon Cell Key" style="text;html=1;strokeColor=none;fillColor=none;align=center;verticalAlign=middle;whiteSpace=wrap;rounded=0;fontSize=9;" parent="1" vertex="1">
                    <mxGeometry x="90" y="94.5" width="40" height="10" as="geometry"/>
                </mxCell>
                <mxCell id="39" value="" style="rounded=0;whiteSpace=wrap;html=1;fontSize=9;fillColor=#000000;" parent="1" vertex="1">
                    <mxGeometry x="155" y="50" width="5" height="60" as="geometry"/>
                </mxCell>
                <mxCell id="44" value="" style="rounded=0;whiteSpace=wrap;html=1;fontSize=9;fillColor=#000000;" parent="1" vertex="1">
                    <mxGeometry x="520" y="50" width="5" height="60" as="geometry"/>
                </mxCell>
                <mxCell id="45" value="" style="rounded=0;whiteSpace=wrap;html=1;fontSize=9;fillColor=#000000;" parent="1" vertex="1">
                    <mxGeometry x="797.5" y="50" width="5" height="60" as="geometry"/>
                </mxCell>
                <mxCell id="46" value="" style="ellipse;whiteSpace=wrap;html=1;aspect=fixed;fontSize=9;fillColor=#000000;" parent="1" vertex="1">
                    <mxGeometry x="670" y="75" width="10" height="10" as="geometry"/>
                </mxCell>
                <mxCell id="48" style="edgeStyle=none;html=1;endArrow=none;endFill=0;exitX=0;exitY=0.5;exitDx=0;exitDy=0;entryX=1;entryY=0.5;entryDx=0;entryDy=0;" parent="1" source="45" target="46" edge="1">
                    <mxGeometry relative="1" as="geometry">
                        <mxPoint x="535" y="90" as="sourcePoint"/>
                        <mxPoint x="680" y="90" as="targetPoint"/>
                    </mxGeometry>
                </mxCell>
                <mxCell id="49" value="&lt;span style=&quot;color: rgba(0, 0, 0, 0); font-family: monospace; font-size: 0px; text-align: start; background-color: rgb(251, 251, 251);&quot;&gt;%3CmxGraphModel%3E%3Croot%3E%3CmxCell%20id%3D%220%22%2F%3E%3CmxCell%20id%3D%221%22%20parent%3D%220%22%2F%3E%3CmxCell%20id%3D%222%22%20value%3D%22%E2%98%A0%EF%B8%8F%22%20style%3D%22text%3Bhtml%3D1%3BstrokeColor%3Dnone%3BfillColor%3Dnone%3Balign%3Dcenter%3BverticalAlign%3Dmiddle%3BwhiteSpace%3Dwrap%3Brounded%3D0%3BfontSize%3D36%3B%22%20vertex%3D%221%22%20parent%3D%221%22%3E%3CmxGeometry%20x%3D%22530%22%20y%3D%2220%22%20width%3D%2260%22%20height%3D%2230%22%20as%3D%22geometry%22%2F%3E%3C%2FmxCell%3E%3C%2Froot%3E%3C%2FmxGraphModel%3E&lt;/span&gt;" style="edgeLabel;html=1;align=center;verticalAlign=middle;resizable=0;points=[];fontSize=10;" parent="48" vertex="1" connectable="0">
                    <mxGeometry x="-0.1911" y="-1" relative="1" as="geometry">
                        <mxPoint as="offset"/>
                    </mxGeometry>
                </mxCell>
                <mxCell id="50" value="&lt;span style=&quot;color: rgba(0, 0, 0, 0); font-family: monospace; font-size: 0px; text-align: start; background-color: rgb(251, 251, 251);&quot;&gt;%3CmxGraphModel%3E%3Croot%3E%3CmxCell%20id%3D%220%22%2F%3E%3CmxCell%20id%3D%221%22%20parent%3D%220%22%2F%3E%3CmxCell%20id%3D%222%22%20value%3D%22%E2%98%A0%EF%B8%8F%22%20style%3D%22text%3Bhtml%3D1%3BstrokeColor%3Dnone%3BfillColor%3Dnone%3Balign%3Dcenter%3BverticalAlign%3Dmiddle%3BwhiteSpace%3Dwrap%3Brounded%3D0%3BfontSize%3D36%3B%22%20vertex%3D%221%22%20parent%3D%221%22%3E%3CmxGeometry%20x%3D%22530%22%20y%3D%2220%22%20width%3D%2260%22%20height%3D%2230%22%20as%3D%22geometry%22%2F%3E%3C%2FmxCell%3E%3C%2Froot%3E%3C%2FmxGraphModel%3E&lt;/span&gt;" style="edgeLabel;html=1;align=center;verticalAlign=middle;resizable=0;points=[];fontSize=10;" parent="48" vertex="1" connectable="0">
                    <mxGeometry x="-0.184" relative="1" as="geometry">
                        <mxPoint as="offset"/>
                    </mxGeometry>
                </mxCell>
                <mxCell id="51" value="&lt;span style=&quot;color: rgba(0, 0, 0, 0); font-family: monospace; font-size: 0px; text-align: start; background-color: rgb(251, 251, 251);&quot;&gt;%3CmxGraphModel%3E%3Croot%3E%3CmxCell%20id%3D%220%22%2F%3E%3CmxCell%20id%3D%221%22%20parent%3D%220%22%2F%3E%3CmxCell%20id%3D%222%22%20value%3D%22%E2%98%A0%EF%B8%8F%22%20style%3D%22text%3Bhtml%3D1%3BstrokeColor%3Dnone%3BfillColor%3Dnone%3Balign%3Dcenter%3BverticalAlign%3Dmiddle%3BwhiteSpace%3Dwrap%3Brounded%3D0%3BfontSize%3D36%3B%22%20vertex%3D%221%22%20parent%3D%221%22%3E%3CmxGeometry%20x%3D%22530%22%20y%3D%2220%22%20width%3D%2260%22%20height%3D%2230%22%20as%3D%22geometry%22%2F%3E%3C%2FmxCell%3E%3C%2Froot%3E%3C%2FmxGraphModel%3E&lt;/span&gt;" style="edgeLabel;html=1;align=center;verticalAlign=middle;resizable=0;points=[];fontSize=10;" parent="48" vertex="1" connectable="0">
                    <mxGeometry x="-0.1809" y="-1" relative="1" as="geometry">
                        <mxPoint as="offset"/>
                    </mxGeometry>
                </mxCell>
                <mxCell id="52" value="&lt;span style=&quot;color: rgba(0, 0, 0, 0); font-family: monospace; font-size: 0px; text-align: start; background-color: rgb(251, 251, 251);&quot;&gt;%3CmxGraphModel%3E%3Croot%3E%3CmxCell%20id%3D%220%22%2F%3E%3CmxCell%20id%3D%221%22%20parent%3D%220%22%2F%3E%3CmxCell%20id%3D%222%22%20value%3D%22%E2%98%A0%EF%B8%8F%22%20style%3D%22text%3Bhtml%3D1%3BstrokeColor%3Dnone%3BfillColor%3Dnone%3Balign%3Dcenter%3BverticalAlign%3Dmiddle%3BwhiteSpace%3Dwrap%3Brounded%3D0%3BfontSize%3D36%3B%22%20vertex%3D%221%22%20parent%3D%221%22%3E%3CmxGeometry%20x%3D%22530%22%20y%3D%2220%22%20width%3D%2260%22%20height%3D%2230%22%20as%3D%22geometry%22%2F%3E%3C%2FmxCell%3E%3C%2Froot%3E%3C%2FmxGraphModel%3E&lt;/span&gt;" style="edgeLabel;html=1;align=center;verticalAlign=middle;resizable=0;points=[];fontSize=10;" parent="48" vertex="1" connectable="0">
                    <mxGeometry x="-0.2179" y="-2" relative="1" as="geometry">
                        <mxPoint as="offset"/>
                    </mxGeometry>
                </mxCell>
                <mxCell id="53" value="☠️" style="edgeLabel;html=1;align=center;verticalAlign=middle;resizable=0;points=[];fontSize=29;labelBackgroundColor=none;" parent="48" vertex="1" connectable="0">
                    <mxGeometry x="-0.2209" y="1" relative="1" as="geometry">
                        <mxPoint x="-30" as="offset"/>
                    </mxGeometry>
                </mxCell>
                <mxCell id="54" value="&lt;span style=&quot;font-size: 18px;&quot;&gt;🔒&lt;/span&gt;" style="edgeLabel;html=1;align=center;verticalAlign=middle;resizable=0;points=[];fontSize=10;labelBackgroundColor=none;" parent="1" vertex="1" connectable="0">
                    <mxGeometry x="155.00000000000006" y="75" as="geometry"/>
                </mxCell>
                <mxCell id="56" value="" style="endArrow=none;html=1;exitX=1;exitY=0.5;exitDx=0;exitDy=0;entryX=0;entryY=0.5;entryDx=0;entryDy=0;startArrow=none;" parent="1" source="73" target="55" edge="1">
                    <mxGeometry width="50" height="50" relative="1" as="geometry">
                        <mxPoint x="160" y="80" as="sourcePoint"/>
                        <mxPoint x="440" y="80" as="targetPoint"/>
                    </mxGeometry>
                </mxCell>
                <mxCell id="55" value="&lt;font style=&quot;font-size: 30px;&quot;&gt;🔥&lt;/font&gt;" style="text;html=1;strokeColor=none;fillColor=none;align=center;verticalAlign=middle;whiteSpace=wrap;rounded=0;" parent="1" vertex="1">
                    <mxGeometry x="250" y="64.5" width="30" height="30" as="geometry"/>
                </mxCell>
                <mxCell id="57" value="" style="endArrow=none;html=1;endFill=0;startArrow=none;" parent="1" edge="1">
                    <mxGeometry relative="1" as="geometry">
                        <mxPoint x="805" y="62" as="sourcePoint"/>
                        <mxPoint x="805" y="62" as="targetPoint"/>
                    </mxGeometry>
                </mxCell>
                <mxCell id="58" value="Big Pilgrim&lt;br&gt;Key" style="text;html=1;strokeColor=none;fillColor=none;align=center;verticalAlign=middle;whiteSpace=wrap;rounded=0;fontSize=9;" parent="1" vertex="1">
                    <mxGeometry x="805" y="90" width="48" height="23" as="geometry"/>
                </mxCell>
                <mxCell id="62" value="" style="edgeStyle=none;html=1;entryX=0;entryY=0.5;entryDx=0;entryDy=0;endArrow=none;endFill=0;exitX=1;exitY=0.5;exitDx=0;exitDy=0;" parent="1" source="45" target="61" edge="1">
                    <mxGeometry relative="1" as="geometry">
                        <mxPoint x="805" y="80" as="sourcePoint"/>
                        <mxPoint x="915" y="79.5" as="targetPoint"/>
                    </mxGeometry>
                </mxCell>
                <mxCell id="61" value="" style="ellipse;whiteSpace=wrap;html=1;aspect=fixed;fontSize=9;fillColor=#000000;" parent="1" vertex="1">
                    <mxGeometry x="835" y="75" width="10" height="10" as="geometry"/>
                </mxCell>
                <mxCell id="63" value="" style="endArrow=none;html=1;entryX=0.5;entryY=0;entryDx=0;entryDy=0;startArrow=none;exitX=0.5;exitY=1;exitDx=0;exitDy=0;" parent="1" source="67" target="61" edge="1">
                    <mxGeometry width="50" height="50" relative="1" as="geometry">
                        <mxPoint x="845" y="40" as="sourcePoint"/>
                        <mxPoint x="685" y="95" as="targetPoint"/>
                    </mxGeometry>
                </mxCell>
                <mxCell id="64" value="" style="endArrow=none;html=1;entryX=0.5;entryY=0;entryDx=0;entryDy=0;exitX=0.5;exitY=1;exitDx=0;exitDy=0;" parent="1" source="46" target="13" edge="1">
                    <mxGeometry width="50" height="50" relative="1" as="geometry">
                        <mxPoint x="685" y="170" as="sourcePoint"/>
                        <mxPoint x="840" y="75" as="targetPoint"/>
                    </mxGeometry>
                </mxCell>
                <mxCell id="13" value="&lt;font style=&quot;font-size: 30px;&quot;&gt;🔥&lt;/font&gt;" style="text;html=1;strokeColor=none;fillColor=none;align=center;verticalAlign=middle;whiteSpace=wrap;rounded=0;" parent="1" vertex="1">
                    <mxGeometry x="660" y="294" width="30" height="30" as="geometry"/>
                </mxCell>
                <mxCell id="67" value="👻&lt;font style=&quot;font-size: 10px;&quot;&gt;200&lt;/font&gt;" style="text;html=1;strokeColor=none;fillColor=none;align=center;verticalAlign=middle;whiteSpace=wrap;rounded=0;labelBackgroundColor=none;fontSize=20;" parent="1" vertex="1">
                    <mxGeometry x="803.75" y="20" width="72.5" height="20" as="geometry"/>
                </mxCell>
                <mxCell id="77" style="edgeStyle=none;html=1;exitX=0;exitY=0.5;exitDx=0;exitDy=0;fontSize=20;endArrow=none;endFill=0;" parent="1" source="68" edge="1">
                    <mxGeometry relative="1" as="geometry">
                        <mxPoint x="484" y="309.0344827586207" as="targetPoint"/>
                    </mxGeometry>
                </mxCell>
                <mxCell id="68" value="" style="rounded=0;whiteSpace=wrap;html=1;fontSize=9;fillColor=#f5f5f5;fontColor=#333333;strokeColor=#000000;" parent="1" vertex="1">
                    <mxGeometry x="474" y="279" width="5" height="60" as="geometry"/>
                </mxCell>
                <mxCell id="69" value="" style="endArrow=none;html=1;entryX=0;entryY=0.5;entryDx=0;entryDy=0;exitX=1;exitY=0.5;exitDx=0;exitDy=0;" parent="1" source="68" target="13" edge="1">
                    <mxGeometry width="50" height="50" relative="1" as="geometry">
                        <mxPoint x="521" y="309" as="sourcePoint"/>
                        <mxPoint x="685" y="304.0000000000001" as="targetPoint"/>
                    </mxGeometry>
                </mxCell>
                <mxCell id="70" value="" style="ellipse;whiteSpace=wrap;html=1;aspect=fixed;fontSize=9;fillColor=#000000;" parent="1" vertex="1">
                    <mxGeometry x="428" y="304" width="10" height="10" as="geometry"/>
                </mxCell>
                <mxCell id="71" value="" style="ellipse;whiteSpace=wrap;html=1;aspect=fixed;fontSize=9;fillColor=#000000;" parent="1" vertex="1">
                    <mxGeometry x="341" y="304" width="10" height="10" as="geometry"/>
                </mxCell>
                <mxCell id="72" value="" style="ellipse;whiteSpace=wrap;html=1;aspect=fixed;fontSize=9;fillColor=#000000;" parent="1" vertex="1">
                    <mxGeometry x="288" y="304" width="10" height="10" as="geometry"/>
                </mxCell>
                <mxCell id="74" value="" style="endArrow=none;html=1;exitX=1;exitY=0.5;exitDx=0;exitDy=0;entryX=0;entryY=0.5;entryDx=0;entryDy=0;" parent="1" source="39" target="73" edge="1">
                    <mxGeometry width="50" height="50" relative="1" as="geometry">
                        <mxPoint x="160" y="80" as="sourcePoint"/>
                        <mxPoint x="250" y="79.5" as="targetPoint"/>
                    </mxGeometry>
                </mxCell>
                <mxCell id="73" value="" style="ellipse;whiteSpace=wrap;html=1;aspect=fixed;fontSize=9;fillColor=#000000;" parent="1" vertex="1">
                    <mxGeometry x="210" y="74.5" width="10" height="10" as="geometry"/>
                </mxCell>
                <mxCell id="75" value="" style="rounded=0;whiteSpace=wrap;html=1;fontSize=9;fillColor=#000000;" parent="1" vertex="1">
                    <mxGeometry x="191" y="154" width="48" height="5" as="geometry"/>
                </mxCell>
                <mxCell id="80" style="edgeStyle=none;html=1;entryX=0.5;entryY=0;entryDx=0;entryDy=0;fontSize=20;endArrow=none;endFill=0;" parent="1" source="76" target="72" edge="1">
                    <mxGeometry relative="1" as="geometry"/>
                </mxCell>
                <mxCell id="76" value="" style="rounded=0;whiteSpace=wrap;html=1;fontSize=9;fillColor=#000000;" parent="1" vertex="1">
                    <mxGeometry x="269" y="244" width="48" height="5" as="geometry"/>
                </mxCell>
                <mxCell id="78" value="" style="ellipse;whiteSpace=wrap;html=1;aspect=fixed;fontSize=9;fillColor=#000000;" parent="1" vertex="1">
                    <mxGeometry x="428" y="209" width="10" height="10" as="geometry"/>
                </mxCell>
                <mxCell id="81" style="edgeStyle=none;html=1;entryX=0;entryY=0.5;entryDx=0;entryDy=0;fontSize=20;endArrow=none;endFill=0;exitX=0.5;exitY=1;exitDx=0;exitDy=0;startArrow=classic;startFill=1;" parent="1" source="75" target="72" edge="1">
                    <mxGeometry relative="1" as="geometry">
                        <mxPoint x="303" y="249" as="sourcePoint"/>
                        <mxPoint x="303" y="314" as="targetPoint"/>
                        <Array as="points">
                            <mxPoint x="215" y="309"/>
                        </Array>
                    </mxGeometry>
                </mxCell>
                <mxCell id="82" style="edgeStyle=none;html=1;entryX=0.5;entryY=0;entryDx=0;entryDy=0;fontSize=20;endArrow=none;endFill=0;exitX=0.5;exitY=1;exitDx=0;exitDy=0;" parent="1" source="73" target="75" edge="1">
                    <mxGeometry relative="1" as="geometry">
                        <mxPoint x="303" y="180" as="sourcePoint"/>
                        <mxPoint x="303" y="245" as="targetPoint"/>
                    </mxGeometry>
                </mxCell>
                <mxCell id="84" style="edgeStyle=none;html=1;fontSize=20;endArrow=classic;endFill=1;exitX=0.5;exitY=1;exitDx=0;exitDy=0;startArrow=none;" parent="1" source="116" edge="1">
                    <mxGeometry relative="1" as="geometry">
                        <mxPoint x="433" y="239" as="sourcePoint"/>
                        <mxPoint x="433" y="280" as="targetPoint"/>
                    </mxGeometry>
                </mxCell>
                <mxCell id="85" style="edgeStyle=none;html=1;entryX=0.5;entryY=0;entryDx=0;entryDy=0;fontSize=20;endArrow=none;endFill=0;exitX=0;exitY=0.5;exitDx=0;exitDy=0;startArrow=none;startFill=0;" parent="1" source="78" target="76" edge="1">
                    <mxGeometry relative="1" as="geometry">
                        <mxPoint x="225.0000000000001" y="219" as="sourcePoint"/>
                        <mxPoint x="298" y="319" as="targetPoint"/>
                        <Array as="points">
                            <mxPoint x="293" y="214"/>
                        </Array>
                    </mxGeometry>
                </mxCell>
                <mxCell id="86" value="" style="rounded=0;whiteSpace=wrap;html=1;fontSize=9;fillColor=#f5f5f5;fontColor=#333333;strokeColor=#000000;" parent="1" vertex="1">
                    <mxGeometry x="550" y="130" width="48" height="5" as="geometry"/>
                </mxCell>
                <mxCell id="88" style="edgeStyle=none;html=1;entryX=1;entryY=0.5;entryDx=0;entryDy=0;fontSize=20;endArrow=none;endFill=0;exitX=0.5;exitY=1;exitDx=0;exitDy=0;startArrow=classic;startFill=1;" parent="1" source="86" target="78" edge="1">
                    <mxGeometry relative="1" as="geometry">
                        <mxPoint x="438" y="224" as="sourcePoint"/>
                        <mxPoint x="303" y="249" as="targetPoint"/>
                        <Array as="points">
                            <mxPoint x="574" y="214"/>
                        </Array>
                    </mxGeometry>
                </mxCell>
                <mxCell id="90" value="" style="edgeStyle=none;html=1;endArrow=none;endFill=0;exitX=1;exitY=0.5;exitDx=0;exitDy=0;entryX=0;entryY=0.5;entryDx=0;entryDy=0;" parent="1" source="44" target="89" edge="1">
                    <mxGeometry relative="1" as="geometry">
                        <mxPoint x="525" y="80" as="sourcePoint"/>
                        <mxPoint x="670" y="80" as="targetPoint"/>
                    </mxGeometry>
                </mxCell>
                <mxCell id="91" value="&lt;span style=&quot;color: rgba(0, 0, 0, 0); font-family: monospace; font-size: 0px; text-align: start; background-color: rgb(251, 251, 251);&quot;&gt;%3CmxGraphModel%3E%3Croot%3E%3CmxCell%20id%3D%220%22%2F%3E%3CmxCell%20id%3D%221%22%20parent%3D%220%22%2F%3E%3CmxCell%20id%3D%222%22%20value%3D%22%E2%98%A0%EF%B8%8F%22%20style%3D%22text%3Bhtml%3D1%3BstrokeColor%3Dnone%3BfillColor%3Dnone%3Balign%3Dcenter%3BverticalAlign%3Dmiddle%3BwhiteSpace%3Dwrap%3Brounded%3D0%3BfontSize%3D36%3B%22%20vertex%3D%221%22%20parent%3D%221%22%3E%3CmxGeometry%20x%3D%22530%22%20y%3D%2220%22%20width%3D%2260%22%20height%3D%2230%22%20as%3D%22geometry%22%2F%3E%3C%2FmxCell%3E%3C%2Froot%3E%3C%2FmxGraphModel%3E&lt;/span&gt;" style="edgeLabel;html=1;align=center;verticalAlign=middle;resizable=0;points=[];fontSize=10;" parent="90" vertex="1" connectable="0">
                    <mxGeometry x="-0.1911" y="-1" relative="1" as="geometry">
                        <mxPoint as="offset"/>
                    </mxGeometry>
                </mxCell>
                <mxCell id="92" value="&lt;span style=&quot;color: rgba(0, 0, 0, 0); font-family: monospace; font-size: 0px; text-align: start; background-color: rgb(251, 251, 251);&quot;&gt;%3CmxGraphModel%3E%3Croot%3E%3CmxCell%20id%3D%220%22%2F%3E%3CmxCell%20id%3D%221%22%20parent%3D%220%22%2F%3E%3CmxCell%20id%3D%222%22%20value%3D%22%E2%98%A0%EF%B8%8F%22%20style%3D%22text%3Bhtml%3D1%3BstrokeColor%3Dnone%3BfillColor%3Dnone%3Balign%3Dcenter%3BverticalAlign%3Dmiddle%3BwhiteSpace%3Dwrap%3Brounded%3D0%3BfontSize%3D36%3B%22%20vertex%3D%221%22%20parent%3D%221%22%3E%3CmxGeometry%20x%3D%22530%22%20y%3D%2220%22%20width%3D%2260%22%20height%3D%2230%22%20as%3D%22geometry%22%2F%3E%3C%2FmxCell%3E%3C%2Froot%3E%3C%2FmxGraphModel%3E&lt;/span&gt;" style="edgeLabel;html=1;align=center;verticalAlign=middle;resizable=0;points=[];fontSize=10;" parent="90" vertex="1" connectable="0">
                    <mxGeometry x="-0.184" relative="1" as="geometry">
                        <mxPoint as="offset"/>
                    </mxGeometry>
                </mxCell>
                <mxCell id="93" value="&lt;span style=&quot;color: rgba(0, 0, 0, 0); font-family: monospace; font-size: 0px; text-align: start; background-color: rgb(251, 251, 251);&quot;&gt;%3CmxGraphModel%3E%3Croot%3E%3CmxCell%20id%3D%220%22%2F%3E%3CmxCell%20id%3D%221%22%20parent%3D%220%22%2F%3E%3CmxCell%20id%3D%222%22%20value%3D%22%E2%98%A0%EF%B8%8F%22%20style%3D%22text%3Bhtml%3D1%3BstrokeColor%3Dnone%3BfillColor%3Dnone%3Balign%3Dcenter%3BverticalAlign%3Dmiddle%3BwhiteSpace%3Dwrap%3Brounded%3D0%3BfontSize%3D36%3B%22%20vertex%3D%221%22%20parent%3D%221%22%3E%3CmxGeometry%20x%3D%22530%22%20y%3D%2220%22%20width%3D%2260%22%20height%3D%2230%22%20as%3D%22geometry%22%2F%3E%3C%2FmxCell%3E%3C%2Froot%3E%3C%2FmxGraphModel%3E&lt;/span&gt;" style="edgeLabel;html=1;align=center;verticalAlign=middle;resizable=0;points=[];fontSize=10;" parent="90" vertex="1" connectable="0">
                    <mxGeometry x="-0.1809" y="-1" relative="1" as="geometry">
                        <mxPoint as="offset"/>
                    </mxGeometry>
                </mxCell>
                <mxCell id="94" value="&lt;span style=&quot;color: rgba(0, 0, 0, 0); font-family: monospace; font-size: 0px; text-align: start; background-color: rgb(251, 251, 251);&quot;&gt;%3CmxGraphModel%3E%3Croot%3E%3CmxCell%20id%3D%220%22%2F%3E%3CmxCell%20id%3D%221%22%20parent%3D%220%22%2F%3E%3CmxCell%20id%3D%222%22%20value%3D%22%E2%98%A0%EF%B8%8F%22%20style%3D%22text%3Bhtml%3D1%3BstrokeColor%3Dnone%3BfillColor%3Dnone%3Balign%3Dcenter%3BverticalAlign%3Dmiddle%3BwhiteSpace%3Dwrap%3Brounded%3D0%3BfontSize%3D36%3B%22%20vertex%3D%221%22%20parent%3D%221%22%3E%3CmxGeometry%20x%3D%22530%22%20y%3D%2220%22%20width%3D%2260%22%20height%3D%2230%22%20as%3D%22geometry%22%2F%3E%3C%2FmxCell%3E%3C%2Froot%3E%3C%2FmxGraphModel%3E&lt;/span&gt;" style="edgeLabel;html=1;align=center;verticalAlign=middle;resizable=0;points=[];fontSize=10;" parent="90" vertex="1" connectable="0">
                    <mxGeometry x="-0.2179" y="-2" relative="1" as="geometry">
                        <mxPoint as="offset"/>
                    </mxGeometry>
                </mxCell>
                <mxCell id="89" value="" style="ellipse;whiteSpace=wrap;html=1;aspect=fixed;fontSize=9;fillColor=#000000;" parent="1" vertex="1">
                    <mxGeometry x="569" y="74.5" width="10" height="10" as="geometry"/>
                </mxCell>
                <mxCell id="95" style="edgeStyle=none;html=1;entryX=0.5;entryY=0;entryDx=0;entryDy=0;fontSize=20;endArrow=none;endFill=0;exitX=0.5;exitY=1;exitDx=0;exitDy=0;" parent="1" source="89" target="86" edge="1">
                    <mxGeometry relative="1" as="geometry">
                        <mxPoint x="443" y="229" as="sourcePoint"/>
                        <mxPoint x="443" y="314" as="targetPoint"/>
                    </mxGeometry>
                </mxCell>
                <mxCell id="96" style="edgeStyle=none;html=1;fontSize=20;endArrow=none;endFill=0;exitX=0.5;exitY=1;exitDx=0;exitDy=0;" parent="1" source="71" edge="1">
                    <mxGeometry relative="1" as="geometry">
                        <mxPoint x="345.72" y="324" as="sourcePoint"/>
                        <mxPoint x="346" y="350" as="targetPoint"/>
                    </mxGeometry>
                </mxCell>
                <mxCell id="97" style="edgeStyle=none;html=1;fontSize=20;endArrow=none;endFill=0;exitX=1;exitY=0.5;exitDx=0;exitDy=0;entryX=0;entryY=0.5;entryDx=0;entryDy=0;" parent="1" source="71" target="70" edge="1">
                    <mxGeometry relative="1" as="geometry">
                        <mxPoint x="356" y="324" as="sourcePoint"/>
                        <mxPoint x="356" y="360" as="targetPoint"/>
                    </mxGeometry>
                </mxCell>
                <mxCell id="98" style="edgeStyle=none;html=1;fontSize=20;endArrow=none;endFill=0;exitX=1;exitY=0.5;exitDx=0;exitDy=0;entryX=0;entryY=0.5;entryDx=0;entryDy=0;" parent="1" source="70" target="68" edge="1">
                    <mxGeometry relative="1" as="geometry">
                        <mxPoint x="361" y="319" as="sourcePoint"/>
                        <mxPoint x="437.99999999998204" y="319" as="targetPoint"/>
                    </mxGeometry>
                </mxCell>
                <mxCell id="99" style="edgeStyle=none;html=1;fontSize=20;endArrow=none;endFill=0;exitX=1;exitY=0.5;exitDx=0;exitDy=0;entryX=0;entryY=0.5;entryDx=0;entryDy=0;" parent="1" source="72" target="71" edge="1">
                    <mxGeometry relative="1" as="geometry">
                        <mxPoint x="448.00000000001796" y="319" as="sourcePoint"/>
                        <mxPoint x="340" y="309" as="targetPoint"/>
                    </mxGeometry>
                </mxCell>
                <mxCell id="100" value="Asylum Daemon" style="text;html=1;strokeColor=none;fillColor=none;align=center;verticalAlign=middle;whiteSpace=wrap;rounded=0;fontSize=9;" parent="1" vertex="1">
                    <mxGeometry x="700" y="95" width="40" height="23" as="geometry"/>
                </mxCell>
                <mxCell id="102" value="Knight&lt;br&gt;Estus Flask" style="text;html=1;strokeColor=none;fillColor=none;align=center;verticalAlign=middle;whiteSpace=wrap;rounded=0;fontSize=9;" parent="1" vertex="1">
                    <mxGeometry x="315" y="370" width="62" height="20" as="geometry"/>
                </mxCell>
                <mxCell id="105" value="💂" style="edgeLabel;html=1;align=center;verticalAlign=middle;resizable=0;points=[];fontSize=29;labelBackgroundColor=none;" parent="1" vertex="1" connectable="0">
                    <mxGeometry x="346" y="350" as="geometry"/>
                </mxCell>
                <mxCell id="106" value="🛡️" style="edgeLabel;html=1;align=center;verticalAlign=middle;resizable=0;points=[];fontSize=29;labelBackgroundColor=none;" parent="1" vertex="1" connectable="0">
                    <mxGeometry x="620" y="328" as="geometry"/>
                </mxCell>
                <mxCell id="107" value="🗡️" style="edgeLabel;html=1;align=center;verticalAlign=middle;resizable=0;points=[];fontSize=29;labelBackgroundColor=none;" parent="1" vertex="1" connectable="0">
                    <mxGeometry x="515" y="290" as="geometry"/>
                </mxCell>
                <mxCell id="108" value="🏹" style="edgeLabel;html=1;align=center;verticalAlign=middle;resizable=0;points=[];fontSize=29;labelBackgroundColor=none;" parent="1" vertex="1" connectable="0">
                    <mxGeometry x="598" y="160" as="geometry"/>
                </mxCell>
                <mxCell id="109" value="Ranged Weapon" style="text;html=1;strokeColor=none;fillColor=none;align=center;verticalAlign=middle;whiteSpace=wrap;rounded=0;fontSize=9;" parent="1" vertex="1">
                    <mxGeometry x="580" y="176" width="40" height="23" as="geometry"/>
                </mxCell>
                <mxCell id="110" value="Class&amp;nbsp;&lt;br&gt;Weapon" style="text;html=1;strokeColor=none;fillColor=none;align=center;verticalAlign=middle;whiteSpace=wrap;rounded=0;fontSize=9;" parent="1" vertex="1">
                    <mxGeometry x="529" y="267" width="40" height="23" as="geometry"/>
                </mxCell>
                <mxCell id="112" value="Shield" style="text;html=1;strokeColor=none;fillColor=none;align=center;verticalAlign=middle;whiteSpace=wrap;rounded=0;fontSize=9;" parent="1" vertex="1">
                    <mxGeometry x="610" y="342.5" width="40" height="11" as="geometry"/>
                </mxCell>
                <mxCell id="114" value="&lt;font style=&quot;font-size: 18px;&quot;&gt;🗝️&lt;/font&gt;" style="edgeLabel;html=1;align=center;verticalAlign=middle;resizable=0;points=[];fontSize=10;labelBackgroundColor=none;" parent="1" vertex="1" connectable="0">
                    <mxGeometry x="720.0007692307692" y="130" as="geometry"/>
                </mxCell>
                <mxCell id="115" value="Big Pilgrim&lt;br&gt;Key" style="text;html=1;strokeColor=none;fillColor=none;align=center;verticalAlign=middle;whiteSpace=wrap;rounded=0;fontSize=9;" parent="1" vertex="1">
                    <mxGeometry x="720" y="130" width="48" height="23" as="geometry"/>
                </mxCell>
                <mxCell id="117" value="" style="edgeStyle=none;html=1;entryX=0.5;entryY=0;entryDx=0;entryDy=0;fontSize=20;endArrow=none;endFill=0;exitX=0.5;exitY=1;exitDx=0;exitDy=0;" parent="1" source="78" target="116" edge="1">
                    <mxGeometry relative="1" as="geometry">
                        <mxPoint x="433" y="219" as="sourcePoint"/>
                        <mxPoint x="433" y="304" as="targetPoint"/>
                    </mxGeometry>
                </mxCell>
                <mxCell id="116" value="" style="rounded=0;whiteSpace=wrap;html=1;fontSize=9;fillColor=#000000;" parent="1" vertex="1">
                    <mxGeometry x="409" y="244" width="48" height="5" as="geometry"/>
                </mxCell>
                <mxCell id="118" value="Master&lt;br&gt;Key" style="text;html=1;strokeColor=none;fillColor=none;align=center;verticalAlign=middle;whiteSpace=wrap;rounded=0;fontSize=9;" parent="1" vertex="1">
                    <mxGeometry x="457" y="240.25" width="43" height="7.5" as="geometry"/>
                </mxCell>
                <mxCell id="119" value="Undead Asylum F2 Key" style="text;html=1;strokeColor=none;fillColor=none;align=center;verticalAlign=middle;whiteSpace=wrap;rounded=0;fontSize=9;" parent="1" vertex="1">
                    <mxGeometry x="321" y="240.25" width="63" height="7.5" as="geometry"/>
                </mxCell>
                <mxCell id="122" value="&lt;span style=&quot;font-size: 18px;&quot;&gt;🔒&lt;/span&gt;" style="edgeLabel;html=1;align=center;verticalAlign=middle;resizable=0;points=[];fontSize=10;labelBackgroundColor=none;" parent="1" vertex="1" connectable="0">
                    <mxGeometry x="433" y="244" as="geometry"/>
                </mxCell>
                <mxCell id="124" value="&lt;span style=&quot;font-size: 18px;&quot;&gt;🔒&lt;/span&gt;" style="edgeLabel;html=1;align=center;verticalAlign=middle;resizable=0;points=[];fontSize=10;labelBackgroundColor=none;" parent="1" vertex="1" connectable="0">
                    <mxGeometry x="293" y="244" as="geometry"/>
                </mxCell>
                <mxCell id="127" value="&lt;font style=&quot;font-size: 18px;&quot;&gt;🗝️&lt;/font&gt;" style="edgeLabel;html=1;align=center;verticalAlign=middle;resizable=0;points=[];fontSize=10;labelBackgroundColor=none;" parent="1" vertex="1" connectable="0">
                    <mxGeometry x="370.00076923076915" y="349" as="geometry"/>
                </mxCell>
                <mxCell id="128" value="&lt;span style=&quot;color: rgb(0, 0, 0); font-family: Helvetica; font-size: 9px; font-style: normal; font-variant-ligatures: normal; font-variant-caps: normal; font-weight: 400; letter-spacing: normal; orphans: 2; text-align: center; text-indent: 0px; text-transform: none; widows: 2; word-spacing: 0px; -webkit-text-stroke-width: 0px; background-color: rgb(251, 251, 251); text-decoration-thickness: initial; text-decoration-style: initial; text-decoration-color: initial; float: none; display: inline !important;&quot;&gt;Undead Asylum &lt;br&gt;F2 Key&lt;/span&gt;" style="text;whiteSpace=wrap;html=1;fontSize=9;" parent="1" vertex="1">
                    <mxGeometry x="370" y="344" width="70" height="30" as="geometry"/>
                </mxCell>
                <mxCell id="R90EFHxZelVthEmokD4i-129" value="1" style="ellipse;whiteSpace=wrap;html=1;fontSize=20;" parent="1" vertex="1">
                    <mxGeometry x="915.5" y="150" width="40" height="40" as="geometry"/>
                </mxCell>
                <mxCell id="R90EFHxZelVthEmokD4i-130" value="" style="edgeStyle=orthogonalEdgeStyle;rounded=0;orthogonalLoop=1;jettySize=auto;html=1;fontSize=20;endArrow=none;endFill=0;dashed=1;dashPattern=1 1;" parent="1" source="20" target="R90EFHxZelVthEmokD4i-129" edge="1">
                    <mxGeometry relative="1" as="geometry"/>
                </mxCell>
                <mxCell id="R90EFHxZelVthEmokD4i-131" style="edgeStyle=none;html=1;fontSize=20;endArrow=none;endFill=0;startArrow=none;entryX=0.5;entryY=0;entryDx=0;entryDy=0;" parent="1" target="70" edge="1">
                    <mxGeometry relative="1" as="geometry">
                        <mxPoint x="433" y="270" as="sourcePoint"/>
                        <mxPoint x="438" y="275" as="targetPoint"/>
                    </mxGeometry>
                </mxCell>
                <mxCell id="R90EFHxZelVthEmokD4i-133" value="1" style="ellipse;whiteSpace=wrap;html=1;fontSize=20;" parent="1" vertex="1">
                    <mxGeometry x="1689" y="780" width="40" height="40" as="geometry"/>
                </mxCell>
                <mxCell id="R90EFHxZelVthEmokD4i-135" value="" style="edgeStyle=orthogonalEdgeStyle;rounded=0;orthogonalLoop=1;jettySize=auto;html=1;fontSize=20;endArrow=classic;endFill=1;dashed=1;dashPattern=1 1;entryX=0;entryY=0.5;entryDx=0;entryDy=0;exitX=1;exitY=0.5;exitDx=0;exitDy=0;" parent="1" source="R90EFHxZelVthEmokD4i-133" target="R90EFHxZelVthEmokD4i-134" edge="1">
                    <mxGeometry relative="1" as="geometry">
                        <mxPoint x="2285.5" y="132.0000000000001" as="sourcePoint"/>
                        <mxPoint x="2285.5" y="176.0000000000001" as="targetPoint"/>
                    </mxGeometry>
                </mxCell>
                <mxCell id="R90EFHxZelVthEmokD4i-137" value="Ash Maiden&lt;br&gt;&quot;Reinforce Estus Flash&quot;" style="text;html=1;strokeColor=none;fillColor=none;align=left;verticalAlign=middle;whiteSpace=wrap;rounded=0;fontSize=9;" parent="1" vertex="1">
                    <mxGeometry x="1793" y="852" width="117" height="20" as="geometry"/>
                </mxCell>
                <mxCell id="R90EFHxZelVthEmokD4i-139" value="" style="edgeStyle=orthogonalEdgeStyle;rounded=0;orthogonalLoop=1;jettySize=auto;html=1;fontSize=20;endArrow=none;endFill=0;shape=link;" parent="1" edge="1">
                    <mxGeometry relative="1" as="geometry">
                        <mxPoint x="1780" y="880" as="sourcePoint"/>
                        <mxPoint x="1780" y="915" as="targetPoint"/>
                    </mxGeometry>
                </mxCell>
                <mxCell id="R90EFHxZelVthEmokD4i-140" value="👻&lt;font style=&quot;font-size: 10px;&quot;&gt;400&lt;/font&gt;" style="text;html=1;strokeColor=none;fillColor=none;align=center;verticalAlign=middle;whiteSpace=wrap;rounded=0;labelBackgroundColor=none;fontSize=20;" parent="1" vertex="1">
                    <mxGeometry x="1772.5" y="938" width="72.5" height="20" as="geometry"/>
                </mxCell>
                <mxCell id="R90EFHxZelVthEmokD4i-141" value="" style="edgeStyle=orthogonalEdgeStyle;rounded=0;orthogonalLoop=1;jettySize=auto;html=1;fontSize=20;endArrow=none;endFill=0;startArrow=oval;startFill=1;" parent="1" edge="1">
                    <mxGeometry relative="1" as="geometry">
                        <mxPoint x="1780" y="971" as="sourcePoint"/>
                        <mxPoint x="1430" y="991" as="targetPoint"/>
                    </mxGeometry>
                </mxCell>
                <mxCell id="R90EFHxZelVthEmokD4i-142" value="" style="rounded=0;whiteSpace=wrap;html=1;fontSize=9;fillColor=#000000;" parent="1" vertex="1">
                    <mxGeometry x="1735" y="941" width="5" height="60" as="geometry"/>
                </mxCell>
                <mxCell id="R90EFHxZelVthEmokD4i-144" value="&lt;span style=&quot;font-size: 18px;&quot;&gt;🔒&lt;/span&gt;" style="edgeLabel;html=1;align=center;verticalAlign=middle;resizable=0;points=[];fontSize=10;labelBackgroundColor=none;" parent="1" vertex="1" connectable="0">
                    <mxGeometry x="1737.5" y="966" as="geometry"/>
                </mxCell>
                <mxCell id="R90EFHxZelVthEmokD4i-145" value="Master&lt;br&gt;Key" style="text;html=1;strokeColor=none;fillColor=none;align=center;verticalAlign=middle;whiteSpace=wrap;rounded=0;fontSize=9;" parent="1" vertex="1">
                    <mxGeometry x="1715" y="1011" width="43" height="7.5" as="geometry"/>
                </mxCell>
                <mxCell id="R90EFHxZelVthEmokD4i-146" value="👻&lt;font style=&quot;font-size: 10px;&quot;&gt;1000&lt;/font&gt;" style="text;html=1;strokeColor=none;fillColor=none;align=center;verticalAlign=middle;whiteSpace=wrap;rounded=0;labelBackgroundColor=none;fontSize=20;" parent="1" vertex="1">
                    <mxGeometry x="1425" y="981" width="72.5" height="20" as="geometry"/>
                </mxCell>
                <mxCell id="R90EFHxZelVthEmokD4i-148" value="🗡️" style="edgeLabel;html=1;align=center;verticalAlign=middle;resizable=0;points=[];fontSize=29;labelBackgroundColor=none;" parent="1" vertex="1" connectable="0">
                    <mxGeometry x="1808.75" y="999.5" as="geometry"/>
                </mxCell>
                <mxCell id="R90EFHxZelVthEmokD4i-149" value="Estoc" style="text;html=1;strokeColor=none;fillColor=none;align=center;verticalAlign=middle;whiteSpace=wrap;rounded=0;fontSize=9;" parent="1" vertex="1">
                    <mxGeometry x="1820" y="988" width="40" height="23" as="geometry"/>
                </mxCell>
                <mxCell id="R90EFHxZelVthEmokD4i-150" value="🍷" style="edgeLabel;html=1;align=center;verticalAlign=middle;resizable=0;points=[];fontSize=29;" parent="1" vertex="1" connectable="0">
                    <mxGeometry x="1800" y="1068" as="geometry"/>
                </mxCell>
                <mxCell id="R90EFHxZelVthEmokD4i-151" value="2x Transient Curse" style="text;html=1;strokeColor=none;fillColor=none;align=center;verticalAlign=middle;whiteSpace=wrap;rounded=0;fontSize=9;" parent="1" vertex="1">
                    <mxGeometry x="1815" y="1056.5" width="90" height="23" as="geometry"/>
                </mxCell>
                <mxCell id="R90EFHxZelVthEmokD4i-152" value="" style="edgeStyle=orthogonalEdgeStyle;rounded=0;orthogonalLoop=1;jettySize=auto;html=1;fontSize=20;endArrow=oval;endFill=1;startArrow=oval;startFill=1;" parent="1" edge="1">
                    <mxGeometry relative="1" as="geometry">
                        <mxPoint x="1705" y="1038" as="sourcePoint"/>
                        <mxPoint x="1780" y="1038" as="targetPoint"/>
                    </mxGeometry>
                </mxCell>
                <mxCell id="R90EFHxZelVthEmokD4i-153" value="Rickert of Vinheim&lt;br&gt;Smitt" style="text;html=1;strokeColor=none;fillColor=none;align=center;verticalAlign=middle;whiteSpace=wrap;rounded=0;fontSize=9;" parent="1" vertex="1">
                    <mxGeometry x="1650" y="1048" width="79" height="20" as="geometry"/>
                </mxCell>
                <mxCell id="R90EFHxZelVthEmokD4i-154" value="💂" style="edgeLabel;html=1;align=center;verticalAlign=middle;resizable=0;points=[];fontSize=29;labelBackgroundColor=none;" parent="1" vertex="1" connectable="0">
                    <mxGeometry x="1698" y="1028" as="geometry"/>
                </mxCell>
                <mxCell id="R90EFHxZelVthEmokD4i-155" value="" style="edgeStyle=orthogonalEdgeStyle;rounded=0;orthogonalLoop=1;jettySize=auto;html=1;fontSize=20;endArrow=oval;endFill=1;startArrow=none;startFill=0;" parent="1" edge="1">
                    <mxGeometry relative="1" as="geometry">
                        <mxPoint x="1780" y="1088" as="sourcePoint"/>
                        <mxPoint x="1780" y="915" as="targetPoint"/>
                    </mxGeometry>
                </mxCell>
                <mxCell id="R90EFHxZelVthEmokD4i-156" value="" style="edgeStyle=orthogonalEdgeStyle;rounded=0;orthogonalLoop=1;jettySize=auto;html=1;fontSize=20;endArrow=oval;endFill=1;startArrow=none;startFill=0;" parent="1" edge="1">
                    <mxGeometry relative="1" as="geometry">
                        <mxPoint x="1780" y="800" as="sourcePoint"/>
                        <mxPoint x="1780" y="880" as="targetPoint"/>
                    </mxGeometry>
                </mxCell>
                <mxCell id="R90EFHxZelVthEmokD4i-136" value="💂" style="edgeLabel;html=1;align=center;verticalAlign=middle;resizable=0;points=[];fontSize=29;labelBackgroundColor=none;" parent="1" vertex="1" connectable="0">
                    <mxGeometry x="1780" y="857" as="geometry"/>
                </mxCell>
                <mxCell id="R90EFHxZelVthEmokD4i-161" value="" style="endArrow=none;dashed=1;html=1;rounded=0;fontSize=20;strokeColor=#00A100;strokeWidth=4;" parent="1" edge="1">
                    <mxGeometry width="50" height="50" relative="1" as="geometry">
                        <mxPoint x="2530" y="923" as="sourcePoint"/>
                        <mxPoint x="1555" y="923" as="targetPoint"/>
                    </mxGeometry>
                </mxCell>
                <mxCell id="R90EFHxZelVthEmokD4i-162" value="Text" style="text;html=1;strokeColor=none;fillColor=none;align=center;verticalAlign=middle;whiteSpace=wrap;rounded=0;fontSize=20;" parent="1" vertex="1">
                    <mxGeometry x="1645" y="990" width="60" height="30" as="geometry"/>
                </mxCell>
                <mxCell id="R90EFHxZelVthEmokD4i-163" value="New Londo Ruins" style="text;html=1;strokeColor=none;fillColor=none;align=right;verticalAlign=middle;whiteSpace=wrap;rounded=0;fontSize=20;fontColor=#00A100;fontStyle=4" parent="1" vertex="1">
                    <mxGeometry x="1525" y="925" width="195" height="30" as="geometry"/>
                </mxCell>
                <mxCell id="R90EFHxZelVthEmokD4i-164" value="Valley of Drakes" style="text;html=1;strokeColor=none;fillColor=none;align=right;verticalAlign=middle;whiteSpace=wrap;rounded=0;fontSize=20;fontColor=#00A100;fontStyle=4" parent="1" vertex="1">
                    <mxGeometry x="1350" y="925" width="195" height="30" as="geometry"/>
                </mxCell>
                <mxCell id="R90EFHxZelVthEmokD4i-165" value="Undead Asylum" style="text;html=1;strokeColor=none;fillColor=none;align=left;verticalAlign=middle;whiteSpace=wrap;rounded=0;fontSize=20;fontColor=#00A100;fontStyle=4" parent="1" vertex="1">
                    <mxGeometry x="25" y="-10" width="155" height="30" as="geometry"/>
                </mxCell>
                <mxCell id="R90EFHxZelVthEmokD4i-166" value="" style="endArrow=none;dashed=1;html=1;rounded=0;fontSize=20;strokeColor=#00A100;strokeWidth=4;" parent="1" edge="1">
                    <mxGeometry width="50" height="50" relative="1" as="geometry">
                        <mxPoint x="1025" y="-25" as="sourcePoint"/>
                        <mxPoint x="1025" y="455" as="targetPoint"/>
                    </mxGeometry>
                </mxCell>
                <mxCell id="R90EFHxZelVthEmokD4i-167" value="" style="endArrow=none;dashed=1;html=1;rounded=0;fontSize=20;strokeColor=#00A100;strokeWidth=4;" parent="1" edge="1">
                    <mxGeometry width="50" height="50" relative="1" as="geometry">
                        <mxPoint x="15" y="-25" as="sourcePoint"/>
                        <mxPoint x="1025" y="-25" as="targetPoint"/>
                    </mxGeometry>
                </mxCell>
                <mxCell id="R90EFHxZelVthEmokD4i-168" value="" style="endArrow=none;dashed=1;html=1;rounded=0;fontSize=20;strokeColor=#00A100;strokeWidth=4;" parent="1" edge="1">
                    <mxGeometry width="50" height="50" relative="1" as="geometry">
                        <mxPoint x="15" y="-25" as="sourcePoint"/>
                        <mxPoint x="15" y="445" as="targetPoint"/>
                    </mxGeometry>
                </mxCell>
                <mxCell id="R90EFHxZelVthEmokD4i-169" value="" style="endArrow=none;dashed=1;html=1;rounded=0;fontSize=20;strokeColor=#00A100;strokeWidth=4;" parent="1" edge="1">
                    <mxGeometry width="50" height="50" relative="1" as="geometry">
                        <mxPoint x="20" y="445" as="sourcePoint"/>
                        <mxPoint x="1015" y="445" as="targetPoint"/>
                    </mxGeometry>
                </mxCell>
                <mxCell id="R90EFHxZelVthEmokD4i-170" value="Firelink Shrine" style="text;html=1;strokeColor=none;fillColor=none;align=left;verticalAlign=middle;whiteSpace=wrap;rounded=0;fontSize=20;fontColor=#00A100;fontStyle=4" parent="1" vertex="1">
                    <mxGeometry x="1565" y="319" width="90" height="14" as="geometry"/>
                </mxCell>
                <mxCell id="R90EFHxZelVthEmokD4i-171" value="" style="edgeStyle=orthogonalEdgeStyle;rounded=0;orthogonalLoop=1;jettySize=auto;html=1;fontSize=20;endArrow=none;endFill=0;startArrow=oval;startFill=1;" parent="1" edge="1">
                    <mxGeometry relative="1" as="geometry">
                        <mxPoint x="2340" y="750" as="sourcePoint"/>
                        <mxPoint x="1780" y="800" as="targetPoint"/>
                        <Array as="points">
                            <mxPoint x="1780" y="800"/>
                        </Array>
                    </mxGeometry>
                </mxCell>
                <mxCell id="R90EFHxZelVthEmokD4i-172" value="&lt;font style=&quot;font-size: 10px;&quot;&gt;3x&lt;/font&gt;🎉" style="edgeLabel;html=1;align=center;verticalAlign=middle;resizable=0;points=[];fontSize=29;labelBackgroundColor=none;" parent="1" vertex="1" connectable="0">
                    <mxGeometry x="1845" y="781.5" as="geometry"/>
                </mxCell>
                <mxCell id="R90EFHxZelVthEmokD4i-175" value="" style="edgeStyle=orthogonalEdgeStyle;rounded=0;orthogonalLoop=1;jettySize=auto;html=1;fontSize=20;endArrow=none;endFill=0;startArrow=none;startFill=0;entryX=0.5;entryY=0;entryDx=0;entryDy=0;" parent="1" edge="1">
                    <mxGeometry relative="1" as="geometry">
                        <mxPoint x="1675" y="710" as="sourcePoint"/>
                        <mxPoint x="1780" y="785" as="targetPoint"/>
                        <Array as="points">
                            <mxPoint x="1780" y="710"/>
                        </Array>
                    </mxGeometry>
                </mxCell>
                <mxCell id="R90EFHxZelVthEmokD4i-179" value="Crestfallen Warrior&lt;br&gt;&quot;Story Teller&quot;" style="text;html=1;strokeColor=none;fillColor=none;align=right;verticalAlign=middle;whiteSpace=wrap;rounded=0;fontSize=9;" parent="1" vertex="1">
                    <mxGeometry x="1650" y="720" width="101" height="20" as="geometry"/>
                </mxCell>
                <mxCell id="R90EFHxZelVthEmokD4i-180" value="💂" style="edgeLabel;html=1;align=center;verticalAlign=middle;resizable=0;points=[];fontSize=29;labelBackgroundColor=none;" parent="1" vertex="1" connectable="0">
                    <mxGeometry x="1764" y="730" as="geometry"/>
                </mxCell>
                <mxCell id="R90EFHxZelVthEmokD4i-181" value="" style="edgeStyle=orthogonalEdgeStyle;rounded=0;orthogonalLoop=1;jettySize=auto;html=1;fontSize=20;endArrow=oval;endFill=1;startArrow=oval;startFill=1;" parent="1" edge="1">
                    <mxGeometry relative="1" as="geometry">
                        <mxPoint x="1920" y="640" as="sourcePoint"/>
                        <mxPoint x="1780" y="710" as="targetPoint"/>
                        <Array as="points">
                            <mxPoint x="1780" y="640"/>
                        </Array>
                    </mxGeometry>
                </mxCell>
                <mxCell id="R90EFHxZelVthEmokD4i-182" value="Petrus of Thoroland&lt;br&gt;Cleric (&quot;Faith&quot;)" style="text;html=1;strokeColor=none;fillColor=none;align=right;verticalAlign=middle;whiteSpace=wrap;rounded=0;fontSize=9;" parent="1" vertex="1">
                    <mxGeometry x="1760" y="610" width="87" height="20" as="geometry"/>
                </mxCell>
                <mxCell id="R90EFHxZelVthEmokD4i-183" value="💂" style="edgeLabel;html=1;align=center;verticalAlign=middle;resizable=0;points=[];fontSize=29;labelBackgroundColor=none;" parent="1" vertex="1" connectable="0">
                    <mxGeometry x="1860" y="620" as="geometry"/>
                </mxCell>
                <mxCell id="R90EFHxZelVthEmokD4i-134" value="&lt;font style=&quot;font-size: 30px;&quot;&gt;🔥&lt;/font&gt;" style="text;html=1;strokeColor=none;fillColor=none;align=center;verticalAlign=middle;whiteSpace=wrap;rounded=0;" parent="1" vertex="1">
                    <mxGeometry x="1766" y="785" width="30" height="30" as="geometry"/>
                </mxCell>
                <mxCell id="R90EFHxZelVthEmokD4i-184" value="" style="edgeStyle=orthogonalEdgeStyle;rounded=0;orthogonalLoop=1;jettySize=auto;html=1;fontSize=20;endArrow=oval;endFill=1;startArrow=none;startFill=0;" parent="1" edge="1">
                    <mxGeometry relative="1" as="geometry">
                        <mxPoint x="1825" y="695" as="sourcePoint"/>
                        <mxPoint x="1780" y="695" as="targetPoint"/>
                        <Array as="points">
                            <mxPoint x="1780" y="695"/>
                        </Array>
                    </mxGeometry>
                </mxCell>
                <mxCell id="R90EFHxZelVthEmokD4i-185" value="🗡️" style="edgeLabel;html=1;align=center;verticalAlign=middle;resizable=0;points=[];fontSize=29;labelBackgroundColor=none;" parent="1" vertex="1" connectable="0">
                    <mxGeometry x="1847" y="700" as="geometry"/>
                </mxCell>
                <mxCell id="R90EFHxZelVthEmokD4i-186" value="6x Firebomb" style="text;html=1;strokeColor=none;fillColor=none;align=center;verticalAlign=middle;whiteSpace=wrap;rounded=0;fontSize=9;" parent="1" vertex="1">
                    <mxGeometry x="1859.75" y="688.5" width="64" height="23" as="geometry"/>
                </mxCell>
                <mxCell id="R90EFHxZelVthEmokD4i-187" value="" style="edgeStyle=orthogonalEdgeStyle;rounded=0;orthogonalLoop=1;jettySize=auto;html=1;fontSize=20;endArrow=none;endFill=0;startArrow=none;startFill=0;" parent="1" edge="1">
                    <mxGeometry relative="1" as="geometry">
                        <mxPoint x="1675" y="710" as="sourcePoint"/>
                        <mxPoint x="1675" y="560" as="targetPoint"/>
                        <Array as="points">
                            <mxPoint x="1675" y="595"/>
                            <mxPoint x="1675" y="595"/>
                        </Array>
                    </mxGeometry>
                </mxCell>
                <mxCell id="R90EFHxZelVthEmokD4i-188" value="" style="edgeStyle=orthogonalEdgeStyle;rounded=0;orthogonalLoop=1;jettySize=auto;html=1;fontSize=20;endArrow=none;endFill=0;startArrow=classic;startFill=1;" parent="1" edge="1">
                    <mxGeometry relative="1" as="geometry">
                        <mxPoint x="1760" y="560" as="sourcePoint"/>
                        <mxPoint x="1950" y="560.04" as="targetPoint"/>
                    </mxGeometry>
                </mxCell>
                <mxCell id="R90EFHxZelVthEmokD4i-189" value="" style="edgeStyle=orthogonalEdgeStyle;rounded=0;orthogonalLoop=1;jettySize=auto;html=1;fontSize=20;endArrow=none;endFill=0;startArrow=none;startFill=0;" parent="1" edge="1">
                    <mxGeometry relative="1" as="geometry">
                        <mxPoint x="1950" y="560" as="sourcePoint"/>
                        <mxPoint x="1920" y="640" as="targetPoint"/>
                        <Array as="points">
                            <mxPoint x="1950" y="640"/>
                        </Array>
                    </mxGeometry>
                </mxCell>
                <mxCell id="R90EFHxZelVthEmokD4i-190" value="" style="edgeStyle=orthogonalEdgeStyle;rounded=0;orthogonalLoop=1;jettySize=auto;html=1;fontSize=20;endArrow=none;endFill=0;shape=link;" parent="1" edge="1">
                    <mxGeometry relative="1" as="geometry">
                        <mxPoint x="1920" y="410" as="sourcePoint"/>
                        <mxPoint x="1920" y="637.5" as="targetPoint"/>
                    </mxGeometry>
                </mxCell>
                <mxCell id="R90EFHxZelVthEmokD4i-191" value="🗡️" style="edgeLabel;html=1;align=center;verticalAlign=middle;resizable=0;points=[];fontSize=29;labelBackgroundColor=none;" parent="1" vertex="1" connectable="0">
                    <mxGeometry x="1970" y="636.5" as="geometry"/>
                </mxCell>
                <mxCell id="R90EFHxZelVthEmokD4i-192" value="6x homeward Bone&lt;br&gt;Morning Star&lt;br&gt;Talisman&lt;br&gt;4x Cracked Eye Orb&lt;br&gt;Lloyd&#39;s Talisma" style="text;html=1;strokeColor=none;fillColor=none;align=left;verticalAlign=middle;whiteSpace=wrap;rounded=0;fontSize=9;" parent="1" vertex="1">
                    <mxGeometry x="1990" y="625" width="100" height="23" as="geometry"/>
                </mxCell>
                <mxCell id="R90EFHxZelVthEmokD4i-197" value="👻&lt;font style=&quot;font-size: 10px;&quot;&gt;200&lt;/font&gt;" style="text;html=1;strokeColor=none;fillColor=none;align=center;verticalAlign=middle;whiteSpace=wrap;rounded=0;labelBackgroundColor=none;fontSize=20;" parent="1" vertex="1">
                    <mxGeometry x="2345" y="755" width="72.5" height="20" as="geometry"/>
                </mxCell>
                <mxCell id="R90EFHxZelVthEmokD4i-199" value="" style="edgeStyle=orthogonalEdgeStyle;rounded=0;orthogonalLoop=1;jettySize=auto;html=1;fontSize=20;endArrow=oval;endFill=1;startArrow=none;startFill=0;" parent="1" edge="1">
                    <mxGeometry relative="1" as="geometry">
                        <mxPoint x="2430" y="750" as="sourcePoint"/>
                        <mxPoint x="2340" y="750" as="targetPoint"/>
                        <Array as="points">
                            <mxPoint x="2340" y="750"/>
                        </Array>
                    </mxGeometry>
                </mxCell>
                <mxCell id="R90EFHxZelVthEmokD4i-200" value="💍" style="edgeLabel;html=1;align=center;verticalAlign=middle;resizable=0;points=[];fontSize=29;labelBackgroundColor=none;" parent="1" vertex="1" connectable="0">
                    <mxGeometry x="2440" y="751.5" as="geometry"/>
                </mxCell>
                <mxCell id="R90EFHxZelVthEmokD4i-201" value="Ring of Sacrifice" style="text;html=1;strokeColor=none;fillColor=none;align=left;verticalAlign=middle;whiteSpace=wrap;rounded=0;fontSize=9;" parent="1" vertex="1">
                    <mxGeometry x="2451.75" y="740" width="42.25" height="23" as="geometry"/>
                </mxCell>
                <mxCell id="R90EFHxZelVthEmokD4i-202" value="" style="edgeStyle=orthogonalEdgeStyle;rounded=0;orthogonalLoop=1;jettySize=auto;html=1;fontSize=20;endArrow=oval;endFill=1;startArrow=none;startFill=0;" parent="1" edge="1">
                    <mxGeometry relative="1" as="geometry">
                        <mxPoint x="2340" y="335" as="sourcePoint"/>
                        <mxPoint x="2340" y="750" as="targetPoint"/>
                        <Array as="points">
                            <mxPoint x="2340" y="750"/>
                        </Array>
                    </mxGeometry>
                </mxCell>
                <mxCell id="R90EFHxZelVthEmokD4i-204" value="👻&lt;font style=&quot;font-size: 10px;&quot;&gt;200&lt;/font&gt;" style="text;html=1;strokeColor=none;fillColor=none;align=right;verticalAlign=middle;whiteSpace=wrap;rounded=0;labelBackgroundColor=none;fontSize=20;" parent="1" vertex="1">
                    <mxGeometry x="2235" y="680" width="72.5" height="20" as="geometry"/>
                </mxCell>
                <mxCell id="R90EFHxZelVthEmokD4i-205" value="" style="edgeStyle=orthogonalEdgeStyle;rounded=0;orthogonalLoop=1;jettySize=auto;html=1;fontSize=20;endArrow=oval;endFill=1;startArrow=none;startFill=0;" parent="1" edge="1">
                    <mxGeometry relative="1" as="geometry">
                        <mxPoint x="2310" y="695" as="sourcePoint"/>
                        <mxPoint x="2340" y="695" as="targetPoint"/>
                        <Array as="points">
                            <mxPoint x="2310" y="695"/>
                        </Array>
                    </mxGeometry>
                </mxCell>
                <mxCell id="R90EFHxZelVthEmokD4i-206" value="" style="edgeStyle=orthogonalEdgeStyle;rounded=0;orthogonalLoop=1;jettySize=auto;html=1;fontSize=20;endArrow=oval;endFill=1;startArrow=none;startFill=0;" parent="1" edge="1">
                    <mxGeometry relative="1" as="geometry">
                        <mxPoint x="2309.9999999999995" y="640" as="sourcePoint"/>
                        <mxPoint x="2339.9999999999995" y="640" as="targetPoint"/>
                        <Array as="points">
                            <mxPoint x="2310" y="640"/>
                        </Array>
                    </mxGeometry>
                </mxCell>
                <mxCell id="R90EFHxZelVthEmokD4i-207" value="👻&lt;font style=&quot;font-size: 10px;&quot;&gt;200&lt;/font&gt;" style="text;html=1;strokeColor=none;fillColor=none;align=right;verticalAlign=middle;whiteSpace=wrap;rounded=0;labelBackgroundColor=none;fontSize=20;" parent="1" vertex="1">
                    <mxGeometry x="2235" y="626.5" width="72.5" height="20" as="geometry"/>
                </mxCell>
                <mxCell id="R90EFHxZelVthEmokD4i-208" value="" style="edgeStyle=orthogonalEdgeStyle;rounded=0;orthogonalLoop=1;jettySize=auto;html=1;fontSize=20;endArrow=oval;endFill=1;startArrow=none;startFill=0;" parent="1" edge="1">
                    <mxGeometry relative="1" as="geometry">
                        <mxPoint x="2445" y="555" as="sourcePoint"/>
                        <mxPoint x="2340" y="555" as="targetPoint"/>
                        <Array as="points">
                            <mxPoint x="2339.99" y="555"/>
                        </Array>
                    </mxGeometry>
                </mxCell>
                <mxCell id="R90EFHxZelVthEmokD4i-209" value="" style="edgeStyle=orthogonalEdgeStyle;rounded=0;orthogonalLoop=1;jettySize=auto;html=1;fontSize=20;endArrow=classic;endFill=1;startArrow=none;startFill=0;" parent="1" edge="1">
                    <mxGeometry relative="1" as="geometry">
                        <mxPoint x="2445" y="555" as="sourcePoint"/>
                        <mxPoint x="2370" y="615" as="targetPoint"/>
                        <Array as="points">
                            <mxPoint x="2445" y="615"/>
                        </Array>
                    </mxGeometry>
                </mxCell>
                <mxCell id="R90EFHxZelVthEmokD4i-210" value="" style="edgeStyle=orthogonalEdgeStyle;rounded=0;orthogonalLoop=1;jettySize=auto;html=1;fontSize=20;endArrow=oval;endFill=1;startArrow=none;startFill=0;" parent="1" edge="1">
                    <mxGeometry relative="1" as="geometry">
                        <mxPoint x="2370" y="615" as="sourcePoint"/>
                        <mxPoint x="2340" y="615" as="targetPoint"/>
                        <Array as="points">
                            <mxPoint x="2365" y="615"/>
                            <mxPoint x="2365" y="615"/>
                        </Array>
                    </mxGeometry>
                </mxCell>
                <mxCell id="R90EFHxZelVthEmokD4i-216" value="🎉" style="edgeLabel;html=1;align=center;verticalAlign=middle;resizable=0;points=[];fontSize=29;labelBackgroundColor=none;" parent="1" vertex="1" connectable="0">
                    <mxGeometry x="2400" y="595" as="geometry"/>
                </mxCell>
                <mxCell id="59" value="&lt;span style=&quot;font-size: 18px;&quot;&gt;🔒&lt;/span&gt;" style="edgeLabel;html=1;align=center;verticalAlign=middle;resizable=0;points=[];fontSize=10;labelBackgroundColor=none;" parent="1" vertex="1" connectable="0">
                    <mxGeometry x="800" y="77" as="geometry"/>
                </mxCell>
                <mxCell id="R90EFHxZelVthEmokD4i-219" value="🗡️" style="edgeLabel;html=1;align=center;verticalAlign=middle;resizable=0;points=[];fontSize=29;labelBackgroundColor=none;" parent="1" vertex="1" connectable="0">
                    <mxGeometry x="2460" y="591.5" as="geometry"/>
                </mxCell>
                <mxCell id="R90EFHxZelVthEmokD4i-220" value="Rubbish" style="text;html=1;strokeColor=none;fillColor=none;align=left;verticalAlign=middle;whiteSpace=wrap;rounded=0;fontSize=9;" parent="1" vertex="1">
                    <mxGeometry x="2473.75" y="580" width="42.25" height="23" as="geometry"/>
                </mxCell>
                <mxCell id="R90EFHxZelVthEmokD4i-221" value="👻&lt;font style=&quot;font-size: 10px;&quot;&gt;200&lt;/font&gt;" style="text;html=1;strokeColor=none;fillColor=none;align=center;verticalAlign=middle;whiteSpace=wrap;rounded=0;labelBackgroundColor=none;fontSize=20;" parent="1" vertex="1">
                    <mxGeometry x="2335" y="470" width="72.5" height="20" as="geometry"/>
                </mxCell>
                <mxCell id="R90EFHxZelVthEmokD4i-223" value="" style="rounded=0;whiteSpace=wrap;html=1;fontSize=9;fillColor=#f5f5f5;fontColor=#333333;strokeColor=#000000;" parent="1" vertex="1">
                    <mxGeometry x="2315" y="498" width="48" height="5" as="geometry"/>
                </mxCell>
                <mxCell id="R90EFHxZelVthEmokD4i-224" value="" style="edgeStyle=orthogonalEdgeStyle;rounded=0;orthogonalLoop=1;jettySize=auto;html=1;fontSize=20;endArrow=oval;endFill=1;startArrow=none;startFill=0;" parent="1" edge="1">
                    <mxGeometry relative="1" as="geometry">
                        <mxPoint x="2220" y="460" as="sourcePoint"/>
                        <mxPoint x="2340" y="460" as="targetPoint"/>
                        <Array as="points">
                            <mxPoint x="2250" y="460"/>
                        </Array>
                    </mxGeometry>
                </mxCell>
                <mxCell id="R90EFHxZelVthEmokD4i-225" value="" style="edgeStyle=orthogonalEdgeStyle;rounded=0;orthogonalLoop=1;jettySize=auto;html=1;fontSize=20;endArrow=oval;endFill=1;startArrow=none;startFill=0;" parent="1" edge="1">
                    <mxGeometry relative="1" as="geometry">
                        <mxPoint x="2190" y="460" as="sourcePoint"/>
                        <mxPoint x="2220" y="460" as="targetPoint"/>
                        <Array as="points">
                            <mxPoint x="2190" y="460"/>
                        </Array>
                    </mxGeometry>
                </mxCell>
                <mxCell id="R90EFHxZelVthEmokD4i-226" value="" style="edgeStyle=orthogonalEdgeStyle;rounded=0;orthogonalLoop=1;jettySize=auto;html=1;fontSize=20;endArrow=oval;endFill=1;startArrow=none;startFill=0;" parent="1" edge="1">
                    <mxGeometry relative="1" as="geometry">
                        <mxPoint x="2220" y="460" as="sourcePoint"/>
                        <mxPoint x="2340" y="520" as="targetPoint"/>
                        <Array as="points">
                            <mxPoint x="2220" y="520"/>
                        </Array>
                    </mxGeometry>
                </mxCell>
                <mxCell id="R90EFHxZelVthEmokD4i-227" value="Merchant&lt;br&gt;Residence Key: 1000&lt;br&gt;Repairbox: 3000&lt;br&gt;Bottomless Box: 1000" style="text;html=1;strokeColor=none;fillColor=none;align=right;verticalAlign=middle;whiteSpace=wrap;rounded=0;fontSize=9;" parent="1" vertex="1">
                    <mxGeometry x="2075" y="423" width="117" height="20" as="geometry"/>
                </mxCell>
                <mxCell id="R90EFHxZelVthEmokD4i-228" value="💂" style="edgeLabel;html=1;align=center;verticalAlign=middle;resizable=0;points=[];fontSize=29;labelBackgroundColor=none;" parent="1" vertex="1" connectable="0">
                    <mxGeometry x="2205" y="433" as="geometry"/>
                </mxCell>
                <mxCell id="R90EFHxZelVthEmokD4i-229" value="👻&lt;font style=&quot;font-size: 10px;&quot;&gt;1000&lt;/font&gt;" style="text;html=1;strokeColor=none;fillColor=none;align=center;verticalAlign=middle;whiteSpace=wrap;rounded=0;labelBackgroundColor=none;fontSize=20;" parent="1" vertex="1">
                    <mxGeometry x="2401.25" y="527" width="72.5" height="20" as="geometry"/>
                </mxCell>
                <mxCell id="R90EFHxZelVthEmokD4i-230" value="🗡️" style="edgeLabel;html=1;align=center;verticalAlign=middle;resizable=0;points=[];fontSize=29;labelBackgroundColor=none;" parent="1" vertex="1" connectable="0">
                    <mxGeometry x="2259" y="538.5" as="geometry"/>
                </mxCell>
                <mxCell id="R90EFHxZelVthEmokD4i-231" value="Light Crossbow" style="text;html=1;strokeColor=none;fillColor=none;align=left;verticalAlign=middle;whiteSpace=wrap;rounded=0;fontSize=9;" parent="1" vertex="1">
                    <mxGeometry x="2272.75" y="527" width="42.25" height="23" as="geometry"/>
                </mxCell>
                <mxCell id="R90EFHxZelVthEmokD4i-232" value="🗡️" style="edgeLabel;html=1;align=center;verticalAlign=middle;resizable=0;points=[];fontSize=29;labelBackgroundColor=none;" parent="1" vertex="1" connectable="0">
                    <mxGeometry x="2160" y="509.5" as="geometry"/>
                </mxCell>
                <mxCell id="R90EFHxZelVthEmokD4i-233" value="10x Throwing Knife" style="text;html=1;strokeColor=none;fillColor=none;align=left;verticalAlign=middle;whiteSpace=wrap;rounded=0;fontSize=9;" parent="1" vertex="1">
                    <mxGeometry x="2173.75" y="498" width="42.25" height="23" as="geometry"/>
                </mxCell>
                <mxCell id="R90EFHxZelVthEmokD4i-234" value="" style="edgeStyle=orthogonalEdgeStyle;rounded=0;orthogonalLoop=1;jettySize=auto;html=1;fontSize=20;endArrow=oval;endFill=1;startArrow=none;startFill=0;" parent="1" edge="1">
                    <mxGeometry relative="1" as="geometry">
                        <mxPoint x="2430" y="385" as="sourcePoint"/>
                        <mxPoint x="2340" y="385" as="targetPoint"/>
                        <Array as="points">
                            <mxPoint x="2340" y="385"/>
                        </Array>
                    </mxGeometry>
                </mxCell>
                <mxCell id="R90EFHxZelVthEmokD4i-235" value="🗡️" style="edgeLabel;html=1;align=center;verticalAlign=middle;resizable=0;points=[];fontSize=29;labelBackgroundColor=none;" parent="1" vertex="1" connectable="0">
                    <mxGeometry x="2447.75" y="385.5" as="geometry"/>
                </mxCell>
                <mxCell id="R90EFHxZelVthEmokD4i-236" value="Wooden&lt;br&gt;Shield" style="text;html=1;strokeColor=none;fillColor=none;align=left;verticalAlign=middle;whiteSpace=wrap;rounded=0;fontSize=9;" parent="1" vertex="1">
                    <mxGeometry x="2461.5" y="374" width="42.25" height="23" as="geometry"/>
                </mxCell>
                <mxCell id="R90EFHxZelVthEmokD4i-237" value="" style="rounded=0;whiteSpace=wrap;html=1;fontSize=9;fillColor=#000000;" parent="1" vertex="1">
                    <mxGeometry x="2365" y="355" width="5" height="60" as="geometry"/>
                </mxCell>
                <mxCell id="R90EFHxZelVthEmokD4i-238" value="" style="endArrow=none;html=1;endFill=0;startArrow=none;" parent="1" edge="1">
                    <mxGeometry relative="1" as="geometry">
                        <mxPoint x="2372.5" y="367" as="sourcePoint"/>
                        <mxPoint x="2372.5" y="367" as="targetPoint"/>
                    </mxGeometry>
                </mxCell>
                <mxCell id="R90EFHxZelVthEmokD4i-241" value="" style="edgeStyle=orthogonalEdgeStyle;rounded=0;orthogonalLoop=1;jettySize=auto;html=1;fontSize=20;endArrow=oval;endFill=1;startArrow=none;startFill=0;" parent="1" source="R90EFHxZelVthEmokD4i-242" edge="1">
                    <mxGeometry relative="1" as="geometry">
                        <mxPoint x="2309.999999999999" y="335" as="sourcePoint"/>
                        <mxPoint x="2339.999999999999" y="335" as="targetPoint"/>
                        <Array as="points">
                            <mxPoint x="2310" y="335"/>
                        </Array>
                    </mxGeometry>
                </mxCell>
                <mxCell id="R90EFHxZelVthEmokD4i-243" value="" style="edgeStyle=orthogonalEdgeStyle;rounded=0;orthogonalLoop=1;jettySize=auto;html=1;fontSize=20;endArrow=none;endFill=1;startArrow=none;startFill=0;" parent="1" target="R90EFHxZelVthEmokD4i-242" edge="1">
                    <mxGeometry relative="1" as="geometry">
                        <mxPoint x="2309.999999999999" y="335" as="sourcePoint"/>
                        <mxPoint x="2339.999999999999" y="335" as="targetPoint"/>
                        <Array as="points"/>
                    </mxGeometry>
                </mxCell>
                <mxCell id="R90EFHxZelVthEmokD4i-242" value="&lt;font style=&quot;font-size: 30px;&quot;&gt;🔥&lt;/font&gt;" style="text;html=1;strokeColor=none;fillColor=none;align=center;verticalAlign=middle;whiteSpace=wrap;rounded=0;" parent="1" vertex="1">
                    <mxGeometry x="2277.5" y="319" width="30" height="30" as="geometry"/>
                </mxCell>
                <mxCell id="R90EFHxZelVthEmokD4i-244" value="" style="endArrow=none;dashed=1;html=1;rounded=0;fontSize=20;strokeColor=#00A100;strokeWidth=4;" parent="1" edge="1">
                    <mxGeometry width="50" height="50" relative="1" as="geometry">
                        <mxPoint x="2535" y="665" as="sourcePoint"/>
                        <mxPoint x="2080" y="665" as="targetPoint"/>
                    </mxGeometry>
                </mxCell>
                <mxCell id="R90EFHxZelVthEmokD4i-245" value="" style="endArrow=none;dashed=1;html=1;rounded=0;fontSize=20;strokeColor=#00A100;strokeWidth=4;" parent="1" edge="1">
                    <mxGeometry width="50" height="50" relative="1" as="geometry">
                        <mxPoint x="2535" y="665" as="sourcePoint"/>
                        <mxPoint x="2535" y="925" as="targetPoint"/>
                    </mxGeometry>
                </mxCell>
                <mxCell id="R90EFHxZelVthEmokD4i-247" value="" style="edgeStyle=orthogonalEdgeStyle;rounded=0;orthogonalLoop=1;jettySize=auto;html=1;fontSize=20;endArrow=oval;endFill=1;startArrow=none;startFill=0;" parent="1" edge="1">
                    <mxGeometry relative="1" as="geometry">
                        <mxPoint x="1675" y="655" as="sourcePoint"/>
                        <mxPoint x="1700" y="655" as="targetPoint"/>
                    </mxGeometry>
                </mxCell>
                <mxCell id="R90EFHxZelVthEmokD4i-248" value="👻&lt;font style=&quot;font-size: 10px;&quot;&gt;200&lt;/font&gt;" style="text;html=1;strokeColor=none;fillColor=none;align=left;verticalAlign=middle;whiteSpace=wrap;rounded=0;labelBackgroundColor=none;fontSize=20;" parent="1" vertex="1">
                    <mxGeometry x="1707.75" y="646.5" width="57.5" height="20" as="geometry"/>
                </mxCell>
                <mxCell id="R90EFHxZelVthEmokD4i-249" value="" style="edgeStyle=orthogonalEdgeStyle;rounded=0;orthogonalLoop=1;jettySize=auto;html=1;fontSize=20;endArrow=none;endFill=0;startArrow=none;startFill=0;" parent="1" edge="1">
                    <mxGeometry relative="1" as="geometry">
                        <mxPoint x="1675" y="560" as="sourcePoint"/>
                        <mxPoint x="1760" y="560" as="targetPoint"/>
                    </mxGeometry>
                </mxCell>
                <mxCell id="R90EFHxZelVthEmokD4i-250" value="" style="rounded=0;orthogonalLoop=1;jettySize=auto;html=1;fontSize=20;endArrow=none;endFill=0;startArrow=none;startFill=0;" parent="1" edge="1">
                    <mxGeometry relative="1" as="geometry">
                        <mxPoint x="2340" y="335" as="sourcePoint"/>
                        <mxPoint x="2370" y="285" as="targetPoint"/>
                    </mxGeometry>
                </mxCell>
                <mxCell id="R90EFHxZelVthEmokD4i-251" value="" style="endArrow=none;dashed=1;html=1;rounded=0;fontSize=20;strokeColor=#00A100;strokeWidth=4;" parent="1" edge="1">
                    <mxGeometry width="50" height="50" relative="1" as="geometry">
                        <mxPoint x="2090" y="665" as="sourcePoint"/>
                        <mxPoint x="2095" y="290" as="targetPoint"/>
                    </mxGeometry>
                </mxCell>
                <mxCell id="R90EFHxZelVthEmokD4i-252" value="" style="endArrow=none;dashed=1;html=1;rounded=0;fontSize=20;strokeColor=#00A100;strokeWidth=4;" parent="1" edge="1">
                    <mxGeometry width="50" height="50" relative="1" as="geometry">
                        <mxPoint x="2095" y="295" as="sourcePoint"/>
                        <mxPoint x="1555" y="295" as="targetPoint"/>
                    </mxGeometry>
                </mxCell>
                <mxCell id="R90EFHxZelVthEmokD4i-254" value="🐀" style="text;html=1;strokeColor=none;fillColor=none;align=right;verticalAlign=middle;whiteSpace=wrap;rounded=0;labelBackgroundColor=none;fontSize=20;" parent="1" vertex="1">
                    <mxGeometry x="2332.5" y="668.5" width="35" height="20" as="geometry"/>
                </mxCell>
                <mxCell id="R90EFHxZelVthEmokD4i-256" value="" style="rounded=0;orthogonalLoop=1;jettySize=auto;html=1;fontSize=20;endArrow=none;endFill=0;startArrow=oval;startFill=1;" parent="1" edge="1">
                    <mxGeometry relative="1" as="geometry">
                        <mxPoint x="2370" y="214" as="sourcePoint"/>
                        <mxPoint x="2420" y="213.5" as="targetPoint"/>
                    </mxGeometry>
                </mxCell>
                <mxCell id="R90EFHxZelVthEmokD4i-257" value="🗡️" style="edgeLabel;html=1;align=center;verticalAlign=middle;resizable=0;points=[];fontSize=29;labelBackgroundColor=none;" parent="1" vertex="1" connectable="0">
                    <mxGeometry x="2435" y="209.5" as="geometry"/>
                </mxCell>
                <mxCell id="R90EFHxZelVthEmokD4i-258" value="3x Golden&amp;nbsp; Pine Resin" style="text;html=1;strokeColor=none;fillColor=none;align=left;verticalAlign=middle;whiteSpace=wrap;rounded=0;fontSize=9;" parent="1" vertex="1">
                    <mxGeometry x="2448.75" y="198" width="58.5" height="23" as="geometry"/>
                </mxCell>
                <mxCell id="R90EFHxZelVthEmokD4i-260" value="" style="rounded=0;orthogonalLoop=1;jettySize=auto;html=1;fontSize=20;endArrow=oval;endFill=1;startArrow=none;startFill=0;" parent="1" edge="1">
                    <mxGeometry relative="1" as="geometry">
                        <mxPoint x="2370" y="285" as="sourcePoint"/>
                        <mxPoint x="2370" y="100" as="targetPoint"/>
                    </mxGeometry>
                </mxCell>
                <mxCell id="R90EFHxZelVthEmokD4i-262" value="" style="edgeStyle=orthogonalEdgeStyle;rounded=0;orthogonalLoop=1;jettySize=auto;html=1;fontSize=20;endArrow=none;endFill=0;startArrow=none;startFill=0;" parent="1" edge="1">
                    <mxGeometry relative="1" as="geometry">
                        <mxPoint x="1675" y="560" as="sourcePoint"/>
                        <mxPoint x="1675" y="155" as="targetPoint"/>
                        <Array as="points">
                            <mxPoint x="1675" y="255"/>
                            <mxPoint x="1675" y="255"/>
                        </Array>
                    </mxGeometry>
                </mxCell>
                <mxCell id="R90EFHxZelVthEmokD4i-263" value="Catacombs" style="text;html=1;strokeColor=none;fillColor=none;align=left;verticalAlign=middle;whiteSpace=wrap;rounded=0;fontSize=20;fontColor=#00A100;fontStyle=4" parent="1" vertex="1">
                    <mxGeometry x="1560" y="253" width="90" height="14" as="geometry"/>
                </mxCell>
                <mxCell id="R90EFHxZelVthEmokD4i-264" value="Undead Burg" style="text;html=1;strokeColor=none;fillColor=none;align=left;verticalAlign=middle;whiteSpace=wrap;rounded=0;fontSize=20;fontColor=#00A100;fontStyle=4" parent="1" vertex="1">
                    <mxGeometry x="2042" y="253" width="195" height="30" as="geometry"/>
                </mxCell>
                <mxCell id="R90EFHxZelVthEmokD4i-266" value="" style="rounded=0;whiteSpace=wrap;html=1;fontSize=9;fillColor=#000000;" parent="1" vertex="1">
                    <mxGeometry x="2388.25" y="182.5" width="5" height="60" as="geometry"/>
                </mxCell>
                <mxCell id="R90EFHxZelVthEmokD4i-267" value="" style="endArrow=none;html=1;endFill=0;startArrow=none;" parent="1" edge="1">
                    <mxGeometry relative="1" as="geometry">
                        <mxPoint x="2395.75" y="194.5" as="sourcePoint"/>
                        <mxPoint x="2395.75" y="194.5" as="targetPoint"/>
                    </mxGeometry>
                </mxCell>
                <mxCell id="R90EFHxZelVthEmokD4i-268" value="Residence Key" style="text;html=1;strokeColor=none;fillColor=none;align=left;verticalAlign=middle;whiteSpace=wrap;rounded=0;fontSize=9;" parent="1" vertex="1">
                    <mxGeometry x="2395.75" y="222.5" width="48" height="23" as="geometry"/>
                </mxCell>
                <mxCell id="R90EFHxZelVthEmokD4i-269" value="&lt;span style=&quot;font-size: 18px;&quot;&gt;🔒&lt;/span&gt;" style="edgeLabel;html=1;align=center;verticalAlign=middle;resizable=0;points=[];fontSize=10;labelBackgroundColor=none;" parent="1" vertex="1" connectable="0">
                    <mxGeometry x="2390.75" y="209.5" as="geometry"/>
                </mxCell>
                <mxCell id="R90EFHxZelVthEmokD4i-270" value="" style="edgeStyle=orthogonalEdgeStyle;rounded=0;orthogonalLoop=1;jettySize=auto;html=1;fontSize=20;endArrow=oval;endFill=1;startArrow=none;startFill=0;" parent="1" edge="1">
                    <mxGeometry relative="1" as="geometry">
                        <mxPoint x="2415" y="275" as="sourcePoint"/>
                        <mxPoint x="2370" y="275.03" as="targetPoint"/>
                        <Array as="points">
                            <mxPoint x="2370" y="275.03"/>
                        </Array>
                    </mxGeometry>
                </mxCell>
                <mxCell id="R90EFHxZelVthEmokD4i-271" value="🗡️" style="edgeLabel;html=1;align=center;verticalAlign=middle;resizable=0;points=[];fontSize=29;labelBackgroundColor=none;" parent="1" vertex="1" connectable="0">
                    <mxGeometry x="2431.5" y="276.5" as="geometry"/>
                </mxCell>
                <mxCell id="R90EFHxZelVthEmokD4i-272" value="Black Firebomb" style="text;html=1;strokeColor=none;fillColor=none;align=left;verticalAlign=middle;whiteSpace=wrap;rounded=0;fontSize=9;" parent="1" vertex="1">
                    <mxGeometry x="2445.25" y="265" width="58.5" height="23" as="geometry"/>
                </mxCell>
                <mxCell id="R90EFHxZelVthEmokD4i-273" value="" style="edgeStyle=orthogonalEdgeStyle;rounded=0;orthogonalLoop=1;jettySize=auto;html=1;fontSize=20;endArrow=oval;endFill=1;startArrow=none;startFill=0;" parent="1" edge="1">
                    <mxGeometry relative="1" as="geometry">
                        <mxPoint x="2320" y="242" as="sourcePoint"/>
                        <mxPoint x="2370" y="242" as="targetPoint"/>
                        <Array as="points">
                            <mxPoint x="2320" y="242"/>
                        </Array>
                    </mxGeometry>
                </mxCell>
                <mxCell id="R90EFHxZelVthEmokD4i-274" value="👻&lt;font style=&quot;font-size: 10px;&quot;&gt;200&lt;/font&gt;" style="text;html=1;strokeColor=none;fillColor=none;align=right;verticalAlign=middle;whiteSpace=wrap;rounded=0;labelBackgroundColor=none;fontSize=20;" parent="1" vertex="1">
                    <mxGeometry x="2270" y="232" width="47.5" height="20" as="geometry"/>
                </mxCell>
                <mxCell id="R90EFHxZelVthEmokD4i-275" value="" style="edgeStyle=orthogonalEdgeStyle;rounded=0;orthogonalLoop=1;jettySize=auto;html=1;fontSize=20;endArrow=oval;endFill=1;startArrow=none;startFill=0;" parent="1" edge="1">
                    <mxGeometry relative="1" as="geometry">
                        <mxPoint x="2320" y="180" as="sourcePoint"/>
                        <mxPoint x="2370" y="180" as="targetPoint"/>
                        <Array as="points">
                            <mxPoint x="2320" y="180"/>
                        </Array>
                    </mxGeometry>
                </mxCell>
                <mxCell id="R90EFHxZelVthEmokD4i-276" value="💍" style="edgeLabel;html=1;align=center;verticalAlign=middle;resizable=0;points=[];fontSize=29;labelBackgroundColor=none;" parent="1" vertex="1" connectable="0">
                    <mxGeometry x="2307.5" y="178.5" as="geometry"/>
                </mxCell>
                <mxCell id="R90EFHxZelVthEmokD4i-277" value="Blue Tearstone Ring" style="text;html=1;strokeColor=none;fillColor=none;align=right;verticalAlign=middle;whiteSpace=wrap;rounded=0;fontSize=9;" parent="1" vertex="1">
                    <mxGeometry x="2230" y="167" width="68.25" height="23" as="geometry"/>
                </mxCell>
                <mxCell id="R90EFHxZelVthEmokD4i-280" value="🥷" style="edgeLabel;html=1;align=center;verticalAlign=middle;resizable=0;points=[];fontSize=29;labelBackgroundColor=none;" parent="1" vertex="1" connectable="0">
                    <mxGeometry x="2345" y="178.5" as="geometry"/>
                </mxCell>
                <mxCell id="R90EFHxZelVthEmokD4i-281" value="🦎" style="edgeLabel;html=1;align=center;verticalAlign=middle;resizable=0;points=[];fontSize=29;labelBackgroundColor=none;" parent="1" vertex="1" connectable="0">
                    <mxGeometry x="2388.25" y="104.5" as="geometry"/>
                </mxCell>
                <mxCell id="R90EFHxZelVthEmokD4i-282" value="" style="rounded=0;orthogonalLoop=1;jettySize=auto;html=1;fontSize=20;endArrow=oval;endFill=1;startArrow=none;startFill=0;" parent="1" edge="1">
                    <mxGeometry relative="1" as="geometry">
                        <mxPoint x="2370" y="100" as="sourcePoint"/>
                        <mxPoint x="2190" y="100" as="targetPoint"/>
                    </mxGeometry>
                </mxCell>
                <mxCell id="R90EFHxZelVthEmokD4i-283" value="☠️" style="edgeLabel;html=1;align=center;verticalAlign=middle;resizable=0;points=[];fontSize=29;labelBackgroundColor=none;" parent="1" vertex="1" connectable="0">
                    <mxGeometry x="2289.9966666666664" y="99.5" as="geometry"/>
                </mxCell>
                <mxCell id="R90EFHxZelVthEmokD4i-284" value="Taurus Daemon" style="text;html=1;strokeColor=none;fillColor=none;align=center;verticalAlign=middle;whiteSpace=wrap;rounded=0;fontSize=9;" parent="1" vertex="1">
                    <mxGeometry x="2272.5" y="118" width="40" height="23" as="geometry"/>
                </mxCell>
                <mxCell id="R90EFHxZelVthEmokD4i-286" value="" style="rounded=0;orthogonalLoop=1;jettySize=auto;html=1;fontSize=20;endArrow=none;endFill=0;startArrow=oval;startFill=1;" parent="1" edge="1">
                    <mxGeometry relative="1" as="geometry">
                        <mxPoint x="2190" y="100" as="sourcePoint"/>
                        <mxPoint x="2190" y="140" as="targetPoint"/>
                    </mxGeometry>
                </mxCell>
                <mxCell id="R90EFHxZelVthEmokD4i-287" value="💂" style="edgeLabel;html=1;align=center;verticalAlign=middle;resizable=0;points=[];fontSize=29;labelBackgroundColor=none;" parent="1" vertex="1" connectable="0">
                    <mxGeometry x="2190" y="160.75" as="geometry"/>
                </mxCell>
                <mxCell id="R90EFHxZelVthEmokD4i-288" value="Solaire of Astora&lt;br&gt;White Soapstone" style="text;html=1;strokeColor=none;fillColor=none;align=center;verticalAlign=middle;whiteSpace=wrap;rounded=0;fontSize=9;" parent="1" vertex="1">
                    <mxGeometry x="2153" y="177.25" width="75" height="20" as="geometry"/>
                </mxCell>
                <mxCell id="R90EFHxZelVthEmokD4i-289" value="" style="rounded=0;orthogonalLoop=1;jettySize=auto;html=1;fontSize=20;endArrow=none;endFill=0;startArrow=oval;startFill=1;" parent="1" edge="1">
                    <mxGeometry relative="1" as="geometry">
                        <mxPoint x="2190" y="-40" as="sourcePoint"/>
                        <mxPoint x="2190" y="100" as="targetPoint"/>
                    </mxGeometry>
                </mxCell>
                <mxCell id="R90EFHxZelVthEmokD4i-290" value="" style="rounded=0;orthogonalLoop=1;jettySize=auto;html=1;fontSize=20;endArrow=none;endFill=0;startArrow=oval;startFill=1;" parent="1" edge="1">
                    <mxGeometry relative="1" as="geometry">
                        <mxPoint x="2080" y="60" as="sourcePoint"/>
                        <mxPoint x="2190" y="60" as="targetPoint"/>
                    </mxGeometry>
                </mxCell>
                <mxCell id="R90EFHxZelVthEmokD4i-291" value="🗡️" style="edgeLabel;html=1;align=center;verticalAlign=middle;resizable=0;points=[];fontSize=29;labelBackgroundColor=none;" parent="1" vertex="1" connectable="0">
                    <mxGeometry x="2155" y="80" as="geometry"/>
                </mxCell>
                <mxCell id="R90EFHxZelVthEmokD4i-292" value="Claymore" style="text;html=1;strokeColor=none;fillColor=none;align=left;verticalAlign=middle;whiteSpace=wrap;rounded=0;fontSize=9;" parent="1" vertex="1">
                    <mxGeometry x="2131.5" y="94.5" width="42.25" height="23" as="geometry"/>
                </mxCell>
                <mxCell id="R90EFHxZelVthEmokD4i-295" value="👻&lt;font style=&quot;font-size: 10px;&quot;&gt;800&lt;/font&gt;" style="text;html=1;strokeColor=none;fillColor=none;align=center;verticalAlign=middle;whiteSpace=wrap;rounded=0;labelBackgroundColor=none;fontSize=20;" parent="1" vertex="1">
                    <mxGeometry x="2103.25" y="37" width="72.5" height="20" as="geometry"/>
                </mxCell>
                <mxCell id="R90EFHxZelVthEmokD4i-297" value="🐲" style="edgeLabel;html=1;align=center;verticalAlign=middle;resizable=0;points=[];fontSize=29;labelBackgroundColor=none;" parent="1" vertex="1" connectable="0">
                    <mxGeometry x="2065" y="64.5" as="geometry">
                        <mxPoint x="-5" y="-7" as="offset"/>
                    </mxGeometry>
                </mxCell>
                <mxCell id="R90EFHxZelVthEmokD4i-298" value="" style="endArrow=none;dashed=1;html=1;rounded=0;fontSize=20;strokeColor=#00A100;strokeWidth=4;" parent="1" edge="1">
                    <mxGeometry width="50" height="50" relative="1" as="geometry">
                        <mxPoint x="2534.9999999999995" y="663" as="sourcePoint"/>
                        <mxPoint x="2540" y="-70" as="targetPoint"/>
                    </mxGeometry>
                </mxCell>
                <mxCell id="R90EFHxZelVthEmokD4i-299" value="" style="endArrow=none;dashed=1;html=1;rounded=0;fontSize=20;strokeColor=#00A100;strokeWidth=4;" parent="1" edge="1">
                    <mxGeometry width="50" height="50" relative="1" as="geometry">
                        <mxPoint x="2540" y="5" as="sourcePoint"/>
                        <mxPoint x="2025" y="5" as="targetPoint"/>
                    </mxGeometry>
                </mxCell>
                <mxCell id="R90EFHxZelVthEmokD4i-300" value="" style="endArrow=none;dashed=1;html=1;rounded=0;fontSize=20;strokeColor=#00A100;strokeWidth=4;" parent="1" edge="1">
                    <mxGeometry width="50" height="50" relative="1" as="geometry">
                        <mxPoint x="2027" y="5" as="sourcePoint"/>
                        <mxPoint x="2027" y="295" as="targetPoint"/>
                    </mxGeometry>
                </mxCell>
                <mxCell id="R90EFHxZelVthEmokD4i-301" value="Undead Parish" style="text;html=1;strokeColor=none;fillColor=none;align=left;verticalAlign=middle;whiteSpace=wrap;rounded=0;fontSize=20;fontColor=#00A100;fontStyle=4" parent="1" vertex="1">
                    <mxGeometry x="2036" y="-35" width="195" height="30" as="geometry"/>
                </mxCell>
                <mxCell id="R90EFHxZelVthEmokD4i-302" value="" style="rounded=0;orthogonalLoop=1;jettySize=auto;html=1;fontSize=20;endArrow=oval;endFill=1;startArrow=none;startFill=0;" parent="1" edge="1">
                    <mxGeometry relative="1" as="geometry">
                        <mxPoint x="2370" y="145" as="sourcePoint"/>
                        <mxPoint x="2450" y="145" as="targetPoint"/>
                    </mxGeometry>
                </mxCell>
                <mxCell id="R90EFHxZelVthEmokD4i-303" value="🥷" style="edgeLabel;html=1;align=center;verticalAlign=middle;resizable=0;points=[];fontSize=29;labelBackgroundColor=none;" parent="1" vertex="1" connectable="0">
                    <mxGeometry x="2430" y="145" as="geometry"/>
                </mxCell>
                <mxCell id="R90EFHxZelVthEmokD4i-304" value="❓" style="edgeLabel;html=1;align=center;verticalAlign=middle;resizable=0;points=[];fontSize=29;labelBackgroundColor=none;" parent="1" vertex="1" connectable="0">
                    <mxGeometry x="2467.5" y="145" as="geometry"/>
                </mxCell>
                <mxCell id="R90EFHxZelVthEmokD4i-305" value="" style="group;" parent="1" vertex="1" connectable="0">
                    <mxGeometry x="1680" y="605" width="41" height="41" as="geometry"/>
                </mxCell>
                <mxCell id="R90EFHxZelVthEmokD4i-306" value="🦜" style="text;html=1;strokeColor=none;fillColor=none;align=center;verticalAlign=middle;whiteSpace=wrap;rounded=0;fontSize=36;" parent="R90EFHxZelVthEmokD4i-305" vertex="1">
                    <mxGeometry x="0.6721311475409836" width="40.32786885245901" height="30" as="geometry"/>
                </mxCell>
                <mxCell id="R90EFHxZelVthEmokD4i-307" value="&lt;font style=&quot;font-size: 10px;&quot;&gt;Snuggly&lt;/font&gt;" style="text;html=1;strokeColor=none;fillColor=none;align=center;verticalAlign=middle;whiteSpace=wrap;rounded=0;fontSize=10;" parent="R90EFHxZelVthEmokD4i-305" vertex="1">
                    <mxGeometry y="30" width="41" height="11" as="geometry"/>
                </mxCell>
            </root>
        </mxGraphModel>
    </diagram>
</mxfile>